/* XPM */
static char * pacman_left_xpm[] = {
"64 64 232 2",
"  	c #FCFDF4",
". 	c #FEFDFD",
"+ 	c #FBF5FD",
"@ 	c #EDEDED",
"# 	c #EEF2F3",
"$ 	c #F2EEF3",
"% 	c #FBF5F5",
"& 	c #E8E7E7",
"* 	c #F2F2F2",
"= 	c #F6FBFB",
"- 	c #F0E7EC",
"; 	c #E0DFDC",
"> 	c #C3C5BC",
", 	c #B3AEB5",
"' 	c #A5A3A4",
") 	c #999799",
"! 	c #A09D94",
"~ 	c #B4B6A9",
"{ 	c #CACBCA",
"] 	c #E2E2DD",
"^ 	c #F2F2ED",
"/ 	c #F9EEFE",
"( 	c #F1EDED",
"_ 	c #EDF2EC",
": 	c #EBECE5",
"< 	c #F4F4FA",
"[ 	c #D6D6CC",
"} 	c #A9ABA7",
"| 	c #797A7A",
"1 	c #575658",
"2 	c #3B3648",
"3 	c #25222C",
"4 	c #1A1A23",
"5 	c #221C1B",
"6 	c #261A17",
"7 	c #1D1A1C",
"8 	c #48484A",
"9 	c #5C5965",
"0 	c #7F8480",
"a 	c #B5B7B5",
"b 	c #D8D9D6",
"c 	c #ECECF2",
"d 	c #F2F1DE",
"e 	c #E5E5E4",
"f 	c #392C14",
"g 	c #574A17",
"h 	c #86791A",
"i 	c #A29724",
"j 	c #BBB527",
"k 	c #D5C927",
"l 	c #D3C81A",
"m 	c #E6D928",
"n 	c #E2D634",
"o 	c #C7B928",
"p 	c #C4B71D",
"q 	c #9B9728",
"r 	c #7D761C",
"s 	c #5B5116",
"t 	c #463915",
"u 	c #272415",
"v 	c #251925",
"w 	c #433A45",
"x 	c #837F92",
"y 	c #E6EAEC",
"z 	c #EDEBFC",
"A 	c #E4E7D9",
"B 	c #170C24",
"C 	c #AB9816",
"D 	c #F6E938",
"E 	c #FDF32C",
"F 	c #FEF31B",
"G 	c #FCEB24",
"H 	c #F9E525",
"I 	c #FCEB33",
"J 	c #FBE92C",
"K 	c #FFFD2D",
"L 	c #FEFD34",
"M 	c #F5EA2C",
"N 	c #DDDA2A",
"O 	c #BBB934",
"P 	c #797325",
"Q 	c #928A93",
"R 	c #E8E6F4",
"S 	c #F6FBF4",
"T 	c #F1F3E6",
"U 	c #F2EDFB",
"V 	c #CDCCD3",
"W 	c #686869",
"X 	c #1A1313",
"Y 	c #645819",
"Z 	c #B2A513",
"` 	c #EDE11C",
" .	c #FEF225",
"..	c #FCEB1B",
"+.	c #F6E322",
"@.	c #F3DE23",
"#.	c #F6E42B",
"$.	c #FAE62A",
"%.	c #F5EA24",
"&.	c #FCE533",
"*.	c #FEF234",
"=.	c #D8D538",
"-.	c #857B24",
";.	c #342E2F",
">.	c #2A1D31",
",.	c #63596B",
"'.	c #E6E6EC",
").	c #120C1B",
"!.	c #DDD71C",
"~.	c #FCEB14",
"{.	c #F3DD15",
"].	c #FAE41C",
"^.	c #F5EB1A",
"/.	c #FADF22",
"(.	c #F7DB27",
"_.	c #F9F62B",
":.	c #271318",
"<.	c #817C88",
"[.	c #1B141D",
"}.	c #938B17",
"|.	c #FFF316",
"1.	c #FAE414",
"2.	c #ECE318",
"3.	c #F4DD1B",
"4.	c #F5E21C",
"5.	c #F6E333",
"6.	c #FFFB3B",
"7.	c #C8C438",
"8.	c #726E6A",
"9.	c #1B0C14",
"0.	c #F6D915",
"a.	c #F9DE1A",
"b.	c #F5E214",
"c.	c #FDED3A",
"d.	c #F9F64A",
"e.	c #150817",
"f.	c #FCE60B",
"g.	c #EEDC13",
"h.	c #EEDB0C",
"i.	c #FFF13B",
"j.	c #525031",
"k.	c #241A08",
"l.	c #FEFC44",
"m.	c #363437",
"n.	c #2B2536",
"o.	c #FEF50A",
"p.	c #ECD70A",
"q.	c #ECE739",
"r.	c #3C3518",
"s.	c #181425",
"t.	c #E8D518",
"u.	c #F8DF35",
"v.	c #F2F13B",
"w.	c #524427",
"x.	c #15131D",
"y.	c #AAA21C",
"z.	c #F3DD0B",
"A.	c #FEF343",
"B.	c #FEEC44",
"C.	c #B4B6C3",
"D.	c #6A6676",
"E.	c #120814",
"F.	c #72690E",
"G.	c #FCFDED",
"H.	c #EBF1E6",
"I.	c #261D2C",
"J.	c #2B260A",
"K.	c #2A2328",
"L.	c #B19A00",
"M.	c #C9BB30",
"N.	c #978927",
"O.	c #B9AB27",
"P.	c #FBE63B",
"Q.	c #574E65",
"R.	c #F4F9EA",
"S.	c #737582",
"T.	c #080716",
"U.	c #6F6618",
"V.	c #2D282D",
"W.	c #FAF71D",
"X.	c #85742D",
"Y.	c #0A030A",
"Z.	c #F2EB4A",
"`.	c #3F4247",
" +	c #1E1A36",
".+	c #938B32",
"++	c #B0AC41",
"@+	c #B9B215",
"#+	c #1C212B",
"$+	c #ACA634",
"%+	c #32260C",
"&+	c #42362F",
"*+	c #0D0212",
"=+	c #716E75",
"-+	c #574D58",
";+	c #FCEC47",
">+	c #DAE1D8",
",+	c #90918A",
"'+	c #4D4209",
")+	c #BBC5C6",
"!+	c #312F44",
"~+	c #AAA228",
"{+	c #CAC943",
"]+	c #EEE428",
"^+	c #625123",
"/+	c #1B1506",
"(+	c #726518",
"_+	c #D1C630",
":+	c #EDF1FA",
"<+	c #848386",
"[+	c #AAB1A9",
"}+	c #918A13",
"|+	c #9294A3",
"1+	c #F3E20D",
"2+	c #4C4513",
"3+	c #3C3706",
"4+	c #55341D",
"5+	c #D7D5E2",
"6+	c #615E59",
"7+	c #6A5B0E",
"8+	c #6D6220",
"9+	c #EFE009",
"0+	c #736977",
"a+	c #484456",
"b+	c #585307",
"c+	c #150E0F",
"d+	c #5D636F",
"e+	c #EEF1DC",
"f+	c #E0CE12",
"g+	c #786725",
"h+	c #4B3E0B",
"i+	c #9BA09A",
"  . . . + @ # @ @ $       % . & * = .     - ; > , ' ) ! ' ~ { ] * . . .   ^ @ / .     . $ ( _ : $ = . . . . ^ @ @ * @ . . . . . ",
". .   . . * & * _ < = + . . . < [ } | 1 2 3 4 4 5 5 5 6 5 7 4 4 3 8 9 0 a b * . . < . . < ^ @ c c . . . . . ( ( @ @ @ . . . . . ",
". . . . % d d @ e @ .     > | 2 6 7 f g h i j k l m m n n k o p q r s t u v w x [     . _ e * _ y . . . . . * ^ * * y . . . . . ",
". .   . + ^ c z .   A 0 2 B u s C o D E F F F G H G G G G E I J E K L M N O P t v w Q ]   . R y @ S . . . . * @ @ @ * . . . . . ",
"@ : T * U < = . V W 7 X Y Z ` E  ...+.@.@.#.#.+.$.$.$.+.%.M M M &.#.J &.*.E *.*.=.-.;.>.,.{ . . . c * ( @ * . = . . . * ( @ @ @ ",
"^ @ < '.@ . b W ).u -.!.~.G $.{.+.` ].^.H /.(.&.$.(.(.$.$.H $.J +.$.I &.J M I I *.L _.o g :.9 [ . S e @ * @ . . . . . * @ @ * @ ",
"( R R   : <.[.u }.m |.1./.@.2.%./.H H 3.3.4.%.J +.G ].G $.H $.H I J J J G I I D I 5.J *.6.7.s 5 8.e . y ^ c = . . . . * @ @ @ @ ",
"( ^   } 3 9.h !.~.4.0.3.a.a.+.b.4.4.+.$.$.$.H a.$.$.$.$.$.J J J $.J &.J &.J J &.I *.&.c.#.*.d.j ;.7 ' . ^ @ . . . . . @ * c @ * ",
". ^ ,.e.g l f.].g.h.1.b.3.+.4.4.4.+.+.+.].H $.H H H $.$.$.$.$.J J M J J J I I J J I I c.I M c.i.c.-.).W % . ( : : T U .   . . . ",
"[ j.k.}.$.4.].3.].4.{.3.].].{.].+.a.].+.+.H $.H b.H $.+.H H J $.J $.J J J J I I J I &.I c.I I *.i.l.O k.m.b . @ z T e   . <   . ",
"n.B i o.p.a.f.p.g.3./.+.3.b.4.4.+.].+.+.+.+.+.H &.J #.%.J J $.4.G $.J J J J I J I J I I *.D I c.I #.6.q.r.s.a . c @ * .   .   . ",
"} 4 f o o.{.t.1...{.3.@.].4.b.+.4.+.4.H +.+.H H ].].G $.$.+.$.E $.$.J J J J J I I I J I I c.I I c.i.u.*.v.w.x.}   * < + . = = . ",
"S V 2 k.y.F 3.0.z.b.4.{.4.+.g.+.3.+.+.+.].+.H $.$.$.#.$.J $.$.$.J J J J J J &.J I I I I I c.I c.J A.v.B.i.6.w.).C.S S U ^ < U ( ",
"c T @ D.E.F.%.].{.h...b.{.4.].4.+.].].+.+.+.H $.@.+.].+.$.&.$.G J M $.J J I J &.I J I I I I I I c.M M D &.c.q.w.B { G._ _ H.$ : ",
"T ] * . } I.t l &.3.h.1.3.3.H ].+.+.+.+.+.H $.$. . .G _.M $.H $.J J J J J J J I J I I I I *.c.I B.E *.c.I M d.N J.K.]   '._ @ ^ ",
"* $ $ :   c 1 9.L.I b.p.+.@.a.{.4.4.3.+.+.].H H M.C N.O.m ..G 5.$.J $.J J &.I J I J I &.I c.I I I P.c.c.c.i.M 6.O E.Q.R.< c c @ ",
". . . . % < . S.T.U.@.f.z.b.+.].].b.(.H +.b. .P X 4 x.7 V.i W.5.$.#.J J J I J I I J I I I I I c.c.I I I i.c.c.I 6.X.Y.) . = G.. ",
". . . . . e * . , I.m.7.F (.].{.3.H +.b.4...O.9.3 K.5 u 7 5 k G $.J J J J J I J J I J I I I I I I i.c.i.c.c.c.c.B.Z.r.X e < G.. ",
". . . . . * y @ + b `. +.+1.H 4.].$.4.#.b.E X.s.u 5 v 3 u x.i E $.J J J J J J &.J I I I I I c.c.I I c.I c.*.I c.v.K ++Y.8.. . S ",
". . . . % * * @ y     .+e.Y t...{.b.$.4.+.I @+6 7 u 3 #+#+B $+ .$.J J J J I &.J I J I I I I I I c.I I c.c.c.c.c.J A._.w.9.b . . ",
"$ * & @ * . = . = = (   a 4 %+O.F /.(.1.4.+.*.C &+).).x.B Y M G $.J J J J J I J I J I I I I I I I I I c.c.c.*.c.I c.6.$+*+=+  * ",
"y ^ ^ y * . . . . % < '.+ b -+Y.r G ].].+.(.b.E m O }.N.O...H &.$.$.J J J &.J I J I J I &.*.I I I D *.c.c.c.c.c.c.I ;+Z.t 3 >+( ",
"* & y ( ^ . . . . . @ T '.+ R.,+).'+l  .4.3.(.$.J .. .*...$.I +.$.$.J J J I I J J I I I I I I c.c.I I c.c.c.i.i.i.B.I l.P T., S ",
"@ * * * c . . . .   ( c # @ < . )+!+k.~+ .H /.+.H H ].u.4.D ^.J J J J J J J &.J &.J I I I *.I c.c.I I c.c.I *.D i.&.i.*.{+T.W   ",
". . . . . @ * @ c % . . . . . y   e 9 *+h ]+..a.b.&.+.+.+.%.J H M $.$.$.J J J J J I J I I I I c.I I I c.c.c.c.c.A.J B.c.q.f w   ",
". . . . . @ @ @ @ #   . . . . ( : < < ,+9.t k E &.@.].G $.P.@.J G $.J J J J J J I J J I J c.I I *.D I I I i.c.c.c.*.c.i.d.^+3 ] ",
". . . . . c ^ $ @ * . . . . . @ U @ ^ . b w /+q F $.%.z.J ].#.].$.$.J G J I J J &.&.I I J I I c.D I I c.I c.c.c.i.c.&.P.l..+).{ ",
". . . . S * @ @ * * . . . . . @ : : @ _ . < W E.(+t.M &.1.B.J %.$.G J $.J J J J J J I J I I *.I *.c.I I I c.i.i.*.;+c.c.L $+T.a ",
"@ @ ^ * * . . . . . * * @ * * .   . . < @ *   ! B %+7.W.+.H 3.&.$.$.$.J J J J J I J I J I I I I I I I I I c.I c.J ;+I P.L 7.s.' ",
"c * ( y @ . . . . * @ @ @ @ * . . .   . c : * S V 8 ).q %...G J J $.J J J J J J J I J I I I I I c.I I c.I c.i.c.*.B.c.I L _+v 0 ",
"@ @ @ @ * . . . . . @ * @ @ * .     . < @ z c e   ~ ).K.t.J u.M G $.$.J J J J &.I J I J M I I I I I c.I i.I c.c.i.B.i.B.l._+9.1 ",
"@ @ * ( # . . . . . @ @ @ * * . . . G.S + : : . , [.5 @+*.(.$.%.$.$.$.$.J J J J J I J I I I I I I c.c.I I c.i.c.I c.*.D 6.{+6 1 ",
". . . . . @ * @ @ * . . . . * * ( : :+<   + = a E.%+M.F /.&.b.I $.G $.$.J J J J &.J I J I I I I D I I I c.I I *.I c.I c.*.7.E.<+",
". . . . . @ @ @ @ * . . . . . @ ^ c c *   . , ).^+N ^.P.$.].&.2.$.M $.G J J J J J I J I I I I I *.I c.I c.I c.c.*.c.A.D i.M.).[+",
". . . . = _ $ * ( c . . . . . @ z ( < @   ' e.}+ .G /./.1.b.J J $.$.J J J J J J I J I J J I I I I I I c.*.I I c.c.I B.c.l.q 4 >+",
". . . . . * @ @ @ * . . . . . @ $ @ : . |+[.@+E 1+H $.H G $.@.J $.G $.$.J J J J I J J I I I I I I I I c.*.D I c.c.i.P.c.l.U.w = ",
"@ @ ^ * * . . . . . ^ y $ @ * .       x 6 p  .g.&.].g.$.&.(.J ].$.$.$.G J J J J J J I J I I I M I I c.I I I c.I P.c.E i.v.2+D.. ",
"c * ( y @ . . . . . @ @ * @ * . . . D.k.k  .3.$.b.J I ].#.I +.$.$.$.$.$.J J J J &.J J I I I I I I I c.c.c.I c.*.B.c.J l.{+/+, . ",
"@ @ @ @ * . . . . . @ @ * @ * . . ,.f t...@.4.4.].4.+.$.%.+.$.G H $.$.$.#.J #.J J &.I J &.M I I I I I I c.*.I I A.J &.l.q V.y * ",
"@ @ * ( # . . . = . @ * @ @ * * w 3+n ~.b.$.+.+.+.(.&...b.$.$.+.$.$.$.$.J J J J &.J &.I I I I I I I I c.c.I c.*.D E ;+l.2+=+. y ",
". . . . . * % c $ U . = + . A !+4+m o.(.@.3.$.].+.+.+.H $.H H $.$.$.$.$.J J J J J J J I J I I I P.*.D B.I i.c.c.*.J A.{+4 >+  . ",
". . . . . @ y @ @ ^ . G.+ 5+3 '+@.b.z.H b.].a.].+.H +.H H H $.+.$.%.$.$.$.#.J #.J J J J I I I I J M c.I %.*.D A.I c.A.s 6+. . . ",
". . . * . * @ _ y _   . > s.g +.~.{.].b.{.$.3.+.+.+.+.H $.H $.H H $.$.$.J J J J &.J J I I I &.I I c.c.I I i.G J D 6.M.v [ . .   ",
". . . . . @ c ^ # _ + ~ ).Y 2.1.t.(.].z.$.@.4.$.+.+.+.H H H H H $.$.$.$.$.J #.J J J J I J I I I P.*.I B.P.I I i.I d.2+=+. + . . ",
"* @ @ * # . . < R.. ) T.7+b.1.3.].].a.a.%.g.].+.+.+.H +.$.H $.H $.$.$.$.J J J J J J J J J I I I I J I A.+.I B.D d.q I.>+  c ( y ",
"@ @ # @ % . . . . ) Y.8+^.9+@.(.{.{.G 3.4.4.H 4.+.+.].%.H H H H $.H $.$.$.#.J J J J J I I I I I J J I I J A.D K {+k.C.S ] $ * _ ",
"( @ y y * * . . <.Y.-.b.@.].f.3.H @.a.{.%.].3.G /.+.H H $.H $.H H %.%.$.$.$.#.J J J J I J I I I c.c.I c.;+5.L q.J.0+. c ^ y @ _ ",
"@ * * ( ^ . . | T.}+1+4.g.z.{.b.1+].{.a.+.4.4./.+.+.H +.H H +.$.H $.H $.$.J J J J J J &.I I I I I c.J I P.W.A.4+a+.   < @ ^ $ @ ",
"  % . . G.< 8.T.C ~.z.(.].z.{.3.1.3.].].3.4.+.].].+.+.+.+.H H H $.$.H %.$.J $.J J G J I I c.I J M I c.&.i.Z.b+n.e c @ . . . . . ",
". . . % . D.c+Z ~.3.a.z.z.g.b.@.3.4.{.{.].4.4.4.+.+.+.H +.H $.$.$.$.$.$.G J $.$.%.I I $.J J I P.*.&.$.E q.g n.5+* * @ = . . . . ",
".     . 0+k.l 1.g.3.1+h.+.4.b.b.b.a.1.3.4.4.4.+.4.+.+.+.H H H H H $.$.$.$.M J %.5.c.I &.I M J $.D I L =.f !+b S @ @ @   . . . . ",
".     d+3+` f.p.p.{.{.b.h.g.$.0.{.4.3.].4.4.+.4.].+.H ].+.H $.+.H H H $.$.$.G J $.G &.&.J J *.c.E 6.$+9.w @   c @ c % . . . . . ",
"c * [ m.u Z o.0.z.{.{.b.3.4.z.a.].3.b.a.].4.4.+.+.].+.+.+.H %.$.%.$.$.$.$.%.J J ^.&.&.J J 5.+._.=.(+*+W * R.< . . . . * @ * * * ",
"e+R + & | B 7+3.].1.0.a.z.h.3.b.{.].].4.4.4.+.3.3.+.+.+.+.H $.+.+.$.$.$.J $.%.$.I $.J J %.K Z.N.6 X } + @ @     . . . * @ @ @ @ ",
"_ H.z +   b -+f }+h.o.{.{.h.b.g.{.b.{.].].4.4.+.4.+.+.+.H H H +.+.+.$.H $.J J J @.A.i.E n .+J.*+=+b . @ @ c . . . . . * @ ^ c @ ",
":+* @ y T % . C.8 t }+f+J G z.].{.{.{.3.3.4.+.4.+.a.+.+.+.H H $.$.%.+.+.+.$.J E _.]+j g+:.Y.-+{ . . : @ ^ ( S . . . . @ * @ @ * ",
". . . . . @ c . S C.9 f Y Z t...|.~.1.4.4.@.@.+.+.+.3.+.` 3.+.#.G J G E  .*.n O.P 3+E.B 9 a % = @ . . . . . @ $ @ * @ . . . . . ",
". . . . . & y ^ @ S   b <+w f 2+h O.n 4.~.|.....G G  .G E E G J ].@._+~+h 2+u Y.e.2 <+b G.R.T c @ . . . . . * @ @ @ @ . . . . . ",
". . . . . _ @ @ @ * + = = . { S.a+V.6 J.h+s U.h }+}+}.}.-.P U.s r.u *+*+B 3 -+Q 5+.   . @ : c : @ * . . . . * @ * * @ . . . . . ",
". . . . = * $ @ : $ . .     . . R.b a |+S.a+2 n. + +B B s.s.3 n.`.1 | i+> ] ^ .     % . + z c * * . = . . . * * @ @ c .   . . . ",
"@ @ * * * . . . . . ( c $ U / . . . . . .   % >+] e ] ; e >+] @ % . . . . . = _ @ _ # @ . . . . . % * * * ^ * . . . . * ^ c @ @ ",
"c @ @ @ _ . . . . . c @ * y :     . . < @ y ^ ^ .   . + . . $ ( c '.* .   . . < _ c * y S     . . * y @ @ @ . . . . . @ y ( @ * ",
"@ @ @ @ @ . . . = . ^ y # # _   . . . S e : c y # = .   . . ( y y ( = . . . . T : @ $ @ % . . . . * @ @ * @ . . . . . * @ @ @ @ ",
"^ @ * $ @ . . . . . * @ @ ( $ . . . . . ( @ * ( + . . . . * : * @ y G.  . . . < c * y ^ % . . . . * @ @ c @ . . . . . * * @ @ $ "};
