/* XPM */
static char * pacman_up_xpm[] = {
"64 64 232 2",
"  	c #FCFDF4",
". 	c #FEFDFD",
"+ 	c #EDEDED",
"@ 	c #F2F2ED",
"# 	c #F1EDED",
"$ 	c #D6D6CC",
"% 	c #2B2536",
"& 	c #A9ABA7",
"* 	c #F6FBF4",
"= 	c #ECECF2",
"- 	c #F1F3E6",
"; 	c #F2F2F2",
"> 	c #F2EEF3",
", 	c #E6EAEC",
"' 	c #EEF1DC",
") 	c #EDF2EC",
"! 	c #EDF1FA",
"~ 	c #EBECE5",
"{ 	c #E8E6F4",
"] 	c #525031",
"^ 	c #170C24",
"/ 	c #1A1A23",
"( 	c #CDCCD3",
"_ 	c #E2E2DD",
": 	c #E8E7E7",
"< 	c #FBF5F5",
"[ 	c #EBF1E6",
"} 	c #F4F4FA",
"| 	c #63596B",
"1 	c #241A08",
"2 	c #A29724",
"3 	c #392C14",
"4 	c #3B3648",
"5 	c #EEF2F3",
"6 	c #FBF5FD",
"7 	c #EDEBFC",
"8 	c #E6E6EC",
"9 	c #150817",
"0 	c #938B17",
"a 	c #FEF50A",
"b 	c #C7B928",
"c 	c #6A6676",
"d 	c #5D636F",
"e 	c #363437",
"f 	c #F2EDFB",
"g 	c #25222C",
"h 	c #574A17",
"i 	c #FAE62A",
"j 	c #ECD70A",
"k 	c #AAA21C",
"l 	c #120814",
"m 	c #F6FBFB",
"n 	c #FCFDED",
"o 	c #736977",
"p 	c #3C3706",
"q 	c #272415",
"r 	c #797A7A",
"s 	c #F2F1DE",
"t 	c #817C88",
"u 	c #1B0C14",
"v 	c #D3C81A",
"w 	c #F5E21C",
"x 	c #F9DE1A",
"y 	c #F3DD15",
"z 	c #FEF31B",
"A 	c #72690E",
"B 	c #261D2C",
"C 	c #E5E5E4",
"D 	c #EDE11C",
"E 	c #B2A513",
"F 	c #D8D9D6",
"G 	c #1B141D",
"H 	c #86791A",
"I 	c #FCE60B",
"J 	c #FAE41C",
"K 	c #E8D518",
"L 	c #F4DD1B",
"M 	c #F5EA24",
"N 	c #463915",
"O 	c #575658",
"P 	c #726E6A",
"Q 	c #150E0F",
"R 	c #6A5B0E",
"S 	c #574D58",
"T 	c #686869",
"U 	c #DDD71C",
"V 	c #FAE414",
"W 	c #F6D915",
"X 	c #737582",
"Y 	c #080716",
"Z 	c #B4B6C3",
"` 	c #120C1B",
" .	c #FCEB14",
"..	c #EEDC13",
"+.	c #FCEB1B",
"@.	c #F3DD0B",
"#.	c #FCE533",
"$.	c #B19A00",
"%.	c #B3AEB5",
"&.	c #F4F9EA",
"*.	c #AB9816",
"=.	c #918A13",
"-.	c #48484A",
";.	c #E6D928",
">.	c #EEDB0C",
",.	c #F5E214",
"'.	c #FCEB33",
").	c #6F6618",
"!.	c #999799",
"~.	c #0A030A",
"{.	c #E4E7D9",
"].	c #1D1A1C",
"^.	c #857B24",
"/.	c #FFF316",
"(.	c #FADF22",
"_.	c #F3DE23",
":.	c #3F4247",
"<.	c #F3E20D",
"[.	c #5C5965",
"}.	c #7F8480",
"|.	c #1A1313",
"1.	c #F6E322",
"2.	c #C8C438",
"3.	c #1E1A36",
"4.	c #938B32",
"5.	c #B4B6A9",
"6.	c #6D6220",
"7.	c #F7DB27",
"8.	c #E0CE12",
"9.	c #645819",
"0.	c #B5B7B5",
"a.	c #C3C5BC",
"b.	c #F5EB1A",
"c.	c #FBE92C",
"d.	c #848386",
"e.	c #FCEB24",
"f.	c #D7D5E2",
"g.	c #181425",
"h.	c #EFE009",
"i.	c #433A45",
"j.	c #ECE318",
"k.	c #F9E525",
"l.	c #32260C",
"m.	c #CACBCA",
"n.	c #F9EEFE",
"o.	c #5B5116",
"p.	c #FDF32C",
"q.	c #B9AB27",
"r.	c #90918A",
"s.	c #312F44",
"t.	c #4D4209",
"u.	c #4C4513",
"v.	c #261A17",
"w.	c #FEF225",
"x.	c #7D761C",
"y.	c #BBC5C6",
"z.	c #55341D",
"A.	c #484456",
"B.	c #2D282D",
"C.	c #F6E938",
"D.	c #E2D634",
"E.	c #F6E42B",
"F.	c #AAA228",
"G.	c #0D0212",
"H.	c #837F92",
"I.	c #2B260A",
"J.	c #9294A3",
"K.	c #D5C927",
"L.	c #4B3E0B",
"M.	c #F0E7EC",
"N.	c #EEE428",
"O.	c #A5A3A4",
"P.	c #C4B71D",
"Q.	c #E0DFDC",
"R.	c #BBB527",
"S.	c #85742D",
"T.	c #B9B215",
"U.	c #FEF234",
"V.	c #1B1506",
"W.	c #797325",
"X.	c #9B9728",
"Y.	c #A09D94",
"Z.	c #DAE1D8",
"`.	c #221C1B",
" +	c #C9BB30",
".+	c #42362F",
"++	c #726518",
"@+	c #625123",
"#+	c #2A2328",
"$+	c #BBB934",
"%+	c #DDDA2A",
"&+	c #978927",
"*+	c #15131D",
"=+	c #251925",
"-+	c #F5EA2C",
";+	c #F9F62B",
">+	c #1C212B",
",+	c #F8DF35",
"'+	c #FAF71D",
")+	c #FBE63B",
"!+	c #FEEC44",
"~+	c #ACA634",
"{+	c #F6E333",
"]+	c #3C3518",
"^+	c #FFFD2D",
"/+	c #FEFD34",
"(+	c #D1C630",
"_+	c #9BA09A",
":+	c #928A93",
"<+	c #D8D538",
"[+	c #FDED3A",
"}+	c #FEF343",
"|+	c #342E2F",
"1+	c #FFF13B",
"2+	c #2A1D31",
"3+	c #786725",
"4+	c #FFFB3B",
"5+	c #271318",
"6+	c #F9F64A",
"7+	c #F2EB4A",
"8+	c #716E75",
"9+	c #FEFC44",
"0+	c #F2F13B",
"a+	c #ECE739",
"b+	c #FCEC47",
"c+	c #524427",
"d+	c #585307",
"e+	c #CAC943",
"f+	c #574E65",
"g+	c #B0AC41",
"h+	c #615E59",
"i+	c #AAB1A9",
"  . . . + @ # # . $ % & * = - ; . . . . > , ; + . . . . + = + + . . . . + = + + . . . . ; + # +   . . . = ' ) ! . . . . + = + @ ",
". . . . ~ + { @ @ ] ^ / ( - _ > . . . . ; @ : ; . . . . + ; + + . . . . + ; + + . . . . + + + ; < .     ; { [ ; . . . . + + + + ",
".   .   - } {   | 1 2 3 4 + ; > . . . . : @ , ; . . . . @ # + ; . . . . @ # + ; . . . . + 5 , ; . .     $ 6 7 + . . . . ; + + ; ",
". . . . ; 8   & 9 0 a b 1 c . ~ . . . . + , # ; . . . . ; , + # . . . . ; , + # . . ; . ; + , # . < . d e : 6 , . . . . ; + + > ",
"6 . < 6 f + ~ g h i j a k l &   < . . < ; ; @ = . . . * ; + ; 5 . . m . ; + ; 5 . . . . 5 < ; @ n . o p q r   - . . . m ; ) + + ",
"+ ; s @ } . t u v w x y z A B = } C ; ; . . . . + + = ; . . . . + + ) ; . . . . ; + ; + . . ; . } c 1 D E ^ F < + : ) ; . . . . ",
"5 : s = m F G H I J I K L M N O . ; , ; m . . . ; + @ + . . . . ; + > + . . . . < , + = . . . . P Q v I a R S . = , + > . . . . ",
"+ ; + 7 . T q U J L j V W J v u X . + + . . . . + + > + . . . . + + ; + . . . . = + ) @ } . . r Y E V j W L 3 Z . @ + + . . . . ",
"+ ) C . ( ` 0  ...J ..+.@.y #.$.Y %.6 , m . . . = + + ; . . . . + + # + . . . m > + , 5 &.. t Y *. ...j @.J =.-.* + + ~ . . m . ",
"> } +   T q ;.w >.w L y ,.>.L '.).B F   m < .   < 5 ; ; . ; . . ; ; = ; . . . . f @ ) ) . !.~.=. .L L y y V >.N Z * ; > . . . . ",
"  m . {.].^./.W V y (.L w +.>.,._.e :.  # } + # .   . . ; + + + . . . . @ + + + . .   6 !.~.^.<.@.x <.y y W a =.[.  6 . # = @ ; ",
"  6   }.|.U V L ,.L 1._.y ,.V j I 2.3.4.  8 - = . . . . ; + ; + . . . . , + + ; m n . 5.Y 6.,.w 7.@.>.,.,.x y 8.3 F m . = + , + ",
"  .   4 9. .(.x L J L J w y L 1.@.z 4.9 0.6 8 5 . . . . + + + + . . . . > ; ; + 6 6 a.` R b._...J @.1.>.L @.y c.9.d.m   > ; 5 + ",
"< . a.^ E e._.x 1.J ,.w 1.w L _.,.7.V 9./ F 6 + . . . . ; + + ; . . . . + + + + . f.g.9.,.h.J @.@...w ..w >.>.e.E i..   f , 5 # ",
". . r q D i j.1.w y w ,...J k.x 1.J k.K l.S &.} . . . . ; ; ; ; ; . . . ; ; ; ; {.g h j.V _.I y y ,.,.i @.L ,.@.K 3 m.. n.~ ) > ",
": } 4 o.p.y M ,.w J w 1.1.w J y J y w +.q.~.r.. , # + + . . . . ; + + + . . . ; s.t.1.V L 7.L ,.L _.,.W x ,...J +.u.X . .     . ",
"; $ v.*.w.1.(.w w 1.1.w L 1.1.w J L J y z x.` y.  ~ f ~   .   . # @ 7 >   . . i.z._. .K J y k.<.V L ,.y J y y y /.H A.&..   . . ",
"m & ].b +.D k.w 1.x J 1.1.J 1.w ,.k.i ,.(.e.t.s.C } + ~ . .   . ~ = # +   . | p ;.,.y 7.J y _.J L w x w L J ,.y  .q.B.F . . . . ",
". r 3 C.1.J k.1.1.J 1.w 1.J 1.L 7.1.w i 7.J v 1 [.} @ + .   . n ! = } ~   c 3 D.a @.J J x e.x y J y V L ,.J y y V D.v.0.. . . . ",
"  O h p._.b.L i 1.1.1.k.1.1.1.1.k.,.E.w V J w.F.G.r.. ) } . } * } ; + . H.1 K  .7.k.,.@.x L y x J y L J x w J L w w I.J.. } * . ",
"  4 H z _.k.L i J 1.1.1.J 1.1.1.1.w ,.1.w 1.w w.H u F . + = + 6       J.v.K.+.,._.,.y i M w M 1.L J w w J w J L w  .L.X . + C # ",
"M.g 2 z E.(.w i k.k.1.1.1.1.k.J ,.+.p.'.1.7.L k.N.N i.} ; ~ 7 ~ 6 . O.G P.w._.i L J i _...w J w w w w w w w w w _./.o.A.  , ~ + ",
"Q./ R.z E.7.M k.i i 1.k.k.k.i k.w.q.S.T.U.,.7.(.+.K.V.T   ; = ~ m %.9 T.w.L w 1.i x L w J k.L w 1.w w 1.w 1.w 1._.+.).4 < @ = ; ",
"a./ K.e.1.#.c.x k.k.k.k.i i i k.W.u g.v.*.p.i 1.x p.X.l Y.* C . 0.` =.p...i w 1.J J 1.i 1.w e.(.J w 1.w 1.L 1.w 1.+.H % Z.@ , # ",
"%.`.v k.i i 1.i k.,.#.J i _.w. +|.g q ]..+;.c.k.,.#.z ++^ (   %.l @+w.<.#.,.J 1.1.1.1.1.1.1.(.1.J 1.w J 1.L w 1.1.e.=.3._ . 5 6 ",
"O.`.;.e.i 7.e.i k.k.c.J i 1.w.*./ #+`.q ` $++.k.#._.i K l.-.5.G l.%+e.k.J c.w 7.1.k.1.1.1.1.1.1.1.1.1.1.J 1.1.x 1.e.=.3.C   m . ",
"!.`.;.e.i 7.J i i i E.e.E.J e.&+*+`.=+g ` 0 w.J 1.J M -+2.` ` `. +b.(.i ..'.1.#.1.1.1.1.k.J k.k.1.1.1.k.1.1.1.1.L w.0 ^ _ . . . ",
"Y.v.D.e.1.i e.i i 1.M i i 1.;+q.].q g >+*+&+U.,+1.e.@.#.'+X.#+T.z )+(.k.i J i +.k.k.k.k.1.M k.1.1.k.1.J 1.1.1.1.1.e.0 ^ Q.6   . ",
"O.`.D.e.M i i i i k.c.i c.i -+;.B.].q >+^ q.+.w 1.i c.V 1.M K U.(.i V e.#.E.M ,.i k.i k.i k.i k.1.1.k.1.1.1.k.1.D p.^.g.C . . . ",
"5.].K.p.-+k.k.c.i k.c.1.i #.i +.2 `.*+^ 9.+.i C.M )+J !+k.+.c.7.#.J ,.i 7.'.1.i k.k.k.k.k.k.k.k.k.k.k.k.k.k.k.k.L p.W.g.Z.. . ; ",
"m./ b '.-+i i c.i c.i i i i k.e.'+K.2 ~+-+k.'.b.c._.E.c.L e.,+i ,.#.c._.c.1.i i k.i i k.i k.i 1.k.i k.i M i k.k.1.e.).g _ > # ~ ",
"_ / P.c.-+c.k.c.c.i w p.i e.i {+{+e.p.w.e.#.1.c.k.c.J M #.c.-+M '.j.c.c.J i e.1.i 1.k.k.k.k.k.i k.i k.1.i 1.1.i E.c.o.% + # , ; ",
"; g X.p.#.1.'.i c.c.e.i c.c.c.i i i i i i i i c.-+e.i i i c.e.i i i i i i i k.i i i k.i i i k.k.i i k.k.M 1.1.i e.J ]+:.< = , + ",
". -.x.^+E.i c.c.-+i i i c.-+c.c.E.c.c.c.c.i i c.i i i e.i i i i e.-+i e.i i i i i M i i i k.M i i i i k.i i 1.M c._.q O . 8 # , ",
". [.o./+c.'.c.#.c.c.c.c.c.i c.i c.c.c.c.c.c.c.c.i c.c.c.i c.i i i i c.i i i i i i i i i i i M k.k.i i k.i i i 1.e.(+G.r . ; m n ",
". }.N -+#.#.c.c.c.c.c.c.c.c.c.c.c.c.c.c.c.c.c.c.i c.e.i c.c.c.i i e.c.i e.i i i i i i i i i i i M i i i i i k.1.p.F.G._+. . .   ",
"  0.q %+U.c.e.#.c.c.c.c.c.c.c.c.c.c.c.c.c.c.c.c.c.c.c.c.c.c.c.c.c.c.c.c.c.c.E.c.c.i c.i c.i i i i e.i i i c.i 1.w.H ^ a..   . . ",
"@ F =+$+p.-+'.c.'.c.c.c.c.'.c.#.'.c.c.'.c.#.'.c.c.c.'.c.c.c.c.c.c.c.c.c.c.c.c.c.c.E.c.c.c.E.i c.c.c.-+i M i c.i U.u.g _ . . . . ",
"+ ; i.W.U.'.'.c.'.'.'.c.#.c.c.'.c.'.c.#.'.c.'.#.c.c.c.c.c.c.c.c.c.c.c.c.c.c.E.c.c.c.c.E.c.c.E.c.i i c.e.c.M c.c.D.q S @ m . . . ",
"n.. H.N U.'.C.#.c.'.c.'.c.#.'.c.'.c.#.c.c.'.c.c.c.c.c.c.c.c.#.c.c.c.c.c.c.c.c.c.c.E.c.c.c.c.c.c.c.i M c.c.i c.p.q.~.:+. ) } - } ",
". . $ =+<+U.'.'.c.c.'.'.'.'.c.'.'.c.c.'.'.c.c.#.c.'.#.c.'.c.'.c.#.c.'.'.c.#.c.#.c.c.#.c.c.c.c.c.c.M {+i b.'._.;+W.9 f.  + ) ~ = ",
"  }   i.^./+{+U.'.'.c.'.'.c.'.c.c.'.'.c.c.'.'.c.'.c.#.c.c.'.c.'.c.'.c.c.c.c.#.c.c.c.c.c.c.c.c.c.e.'.[+e.#.i }+N.p 4 .   ) = + ; ",
"  .   :+|+;+c.#.'.#.'.c.'.'.'.'.'.c.'.'.'.c.'.'.c.c.'.'.'.c.'.c.'.c.'.c.'.c.'.#.c.c.c.c.c.c.c.c.c.'.'.#.#.c.1+R.l d.  < 5 ; > , ",
". . . _ 2+b U.[+[+'.'.'.'.'.'.#.'.'.'.'.'.'.'.'.'.'.'.c.c.'.c.'.c.'.c.'.c.'.c.'.'.c.'.'.c.'.'.#.'.i #.#.c.c.p.3+^ F . . + , + @ ",
"> } )   | h 4+E.'.[+U.'.'.'.'.'.'.'.'.'.'.#.'.'.'.c.c.'.'.'.-+'.'.'.c.'.'.'.#.'.c.'.'.c.c.'.c.'.'.c.'.c.c.M D.5+[.n + 6 . * < < ",
"# @ C . m.5+2.U.-+'.C.[+[+'.U.[+'.'.'.'.'.U.'.U.'.[+'.'.'.'.'.'.'.'.'.'.'.'.-+'.'.'.'.'.'.'.'.'.[+c.-+c.{+^+4.~.0.&.~ 7 .   . . ",
") + ; { . [.o.6+[+'.'.'.'.'.[+'.'.'.[+'.'.'.'.'.'.'.'.U.'.'.'.'.'.'.'.'.'.'.'.'.'.'.#.'.'.'.'.'.'.'.c.U.1.7+I.S < - = = .   . . ",
"~ = ) , . $ `.R.1+U.[+'.[+'.'.'.[+'.[+'.'.'.[+[+[+'.[+'.'.'.'.'.'.'.'.'.-+'.'.'.'.'.'.'.'.'.'.'.c.)+i [+;+&+G.m.m = ~ ; . . . . ",
"> = , + . . P |+[+1+'.[+c.[+!+'.[+'.'.[+'.'.[+[+'.U.C.U.'.[+'.'.C.U.'.'.'.'.'.'.)+c.'.)+'.c.[+'.-+U.C.p.<+v.8+. + + + ; . . . . ",
"m . . * = * C ].^.9+E.1+}+-+p.)+'.1+'.'.'.C.'.'.'.C.'.[+'.'.'.[+'.'.'.'.'.'.'.'.U.-+[+U.c.c.[+[+'.#.'.4+++|.F . . . ; . < ; ; ; ",
". . . . ; C . O.` $+4+,+0+-+U.[+'.[+[+'.'.U.'.'.'.'.'.'.'.'.[+[+'.[+'.'.[+[+'.'.C.[+[+'.'.'.'.c.[+i /+~+G.& . ~ . . . m ; , + + ",
". . . . # + , . T 1 a+U.!+C.[+[+'.1+'.[+[+[+[+[+[+'.[+'.'.[+'.'.'.'.[+[+'.[+'.[+!+'.'.!+}+'.[+'.#.p.<+u T 6 + + . . . . ; + + + ",
". . . . + ; @ @ < e ]+0+1+#.'.[+1+[+[+[+[+[+[+[+[+'.'.'.'.'.1+'.[+[+U.U.'.[+[+[+'.M '.)+1.c.b+)+1+a+3 i.; + + @ . . . . ; + ; = ",
". . . . ; + = + . F g.c+4+[+-+1+[+[+U.[+[+[+[+'.[+1+[+[+[+[+'.[+'.'.'.C.'.'.U.'.1+U.1+'.'.}+{+'+7+h s.+ &.+ = # . . . . @ + + + ",
"@ # ; ; . . m . # . 0.*+c+a+6+-+[+[+'.[+U.[+1+U.[+[+[+1+'.1+[+1+'.[+'.'.[+[+'.[+[+C.e.'.!+C./+}+d+% F   }   . * + ; ; ; ; . . . ",
"+ # @ + m . . . ~ + . & ` c+%+4+'.[+[+[+[+[+1+C.[+[+[+1+[+[+[+[+U.[+[+[+'.U.'.U.[+}+c.1+C.^+a+z.% f.* = .   . . > + + ; . . . . ",
"+ + ; + . . . . ~ 7 =   Z ^ I.$+4+!+0+c.'.[+1+1+}+[+1+U.c.U.1+'.'.U.[+[+)+!+}+C.U.'.C.'.6+e+I.A.C ; + + . . . . + + ; + . . . . ",
"; + ; + . . . . - - + ; * m.#+l S.7+^+}+[+'.!+#.c.U.[+b+b+!+!+[+[+[+'.1+[+[+c.p.c.[+4+6+X.1 o . = ; + = . . . . ; + ; + . . . . ",
"+ + , ; . . . . f C ; } * n _ f+~.]+g+;+4+b+'.1+!+[+#.[+'.[+1+U.'.}+!+)+p.c.#.b+}+}+ +u.B Z .   + + + < . . . . + + + = . . . . ",
". . . . ; ; ; + .   . 6 f )   &.!.|.~.c+~+7+9+U.[+1+)+[+)+'.!+C.[+C.[+[+1+9+9+9+e+o.=+8+Z.* = } . m   . ; ; ; + . . . . ; + ; ; ",
". . . . # + + ;   .   . @ ) 8 } . C P u G.N W.e+a+6+9+/+/+/+9+4+U.1+9+9+0+e+X.u./ h+$ .   _ @ + . . . . + + + ; . . .   @ , + ; ",
". . . . + + + = . } . m } [ ) = m } . F 8+g Y Y 3 @+4.~+2.(+(+e+2. +X.).u.V.B.8+Z.. . 6 = > , @ . . . . ; + @ + . . . . = # + + ",
". . . . + ; + + .     m f > + = n n . .   Z.%.T i.g ` Y g.=+u v.l ` / i.c %., .   . . . # ; + > . . . . ; + = + . . . . + + + + ",
". . . . + + + ; . . . . # ~ @ + . . * . ; # *     _ m.0.O.}.O O d.i+Z.m . . ; , . .   . , ) ) + . . . . ; + + ; . . . . + ; + > "};
