/* XPM */
static char * pacman_xpm[] = {
"64 64 232 2",
"  	c #FEFDFD",
". 	c #EDEDED",
"+ 	c #F2F2F2",
"@ 	c #F2F2ED",
"# 	c #F6FBFB",
"$ 	c #F2EEF3",
"% 	c #EBECE5",
"& 	c #EDF2EC",
"* 	c #F1EDED",
"= 	c #FCFDF4",
"- 	c #F9EEFE",
"; 	c #E2E2DD",
"> 	c #CACBCA",
", 	c #B4B6A9",
"' 	c #A5A3A4",
") 	c #A09D94",
"! 	c #999799",
"~ 	c #B3AEB5",
"{ 	c #C3C5BC",
"] 	c #E0DFDC",
"^ 	c #F0E7EC",
"/ 	c #E8E7E7",
"( 	c #FBF5F5",
"_ 	c #EEF2F3",
": 	c #FBF5FD",
"< 	c #ECECF2",
"[ 	c #F4F4FA",
"} 	c #D8D9D6",
"| 	c #B5B7B5",
"1 	c #7F8480",
"2 	c #5C5965",
"3 	c #48484A",
"4 	c #25222C",
"5 	c #1A1A23",
"6 	c #1D1A1C",
"7 	c #221C1B",
"8 	c #261A17",
"9 	c #3B3648",
"0 	c #575658",
"a 	c #797A7A",
"b 	c #A9ABA7",
"c 	c #D6D6CC",
"d 	c #E6EAEC",
"e 	c #E5E5E4",
"f 	c #837F92",
"g 	c #433A45",
"h 	c #251925",
"i 	c #272415",
"j 	c #463915",
"k 	c #5B5116",
"l 	c #7D761C",
"m 	c #9B9728",
"n 	c #C4B71D",
"o 	c #C7B928",
"p 	c #D5C927",
"q 	c #E2D634",
"r 	c #E6D928",
"s 	c #D3C81A",
"t 	c #BBB527",
"u 	c #A29724",
"v 	c #86791A",
"w 	c #574A17",
"x 	c #392C14",
"y 	c #F2F1DE",
"z 	c #F6FBF4",
"A 	c #E8E6F4",
"B 	c #928A93",
"C 	c #797325",
"D 	c #BBB934",
"E 	c #DDDA2A",
"F 	c #F5EA2C",
"G 	c #FEFD34",
"H 	c #FFFD2D",
"I 	c #FDF32C",
"J 	c #FBE92C",
"K 	c #FCEB33",
"L 	c #FCEB24",
"M 	c #F9E525",
"N 	c #FEF31B",
"O 	c #F6E938",
"P 	c #AB9816",
"Q 	c #170C24",
"R 	c #E4E7D9",
"S 	c #EDEBFC",
"T 	c #63596B",
"U 	c #2A1D31",
"V 	c #342E2F",
"W 	c #857B24",
"X 	c #D8D538",
"Y 	c #FEF234",
"Z 	c #FCE533",
"` 	c #F6E42B",
" .	c #F5EA24",
"..	c #F6E322",
"+.	c #FAE62A",
"@.	c #F3DE23",
"#.	c #FCEB1B",
"$.	c #FEF225",
"%.	c #EDE11C",
"&.	c #B2A513",
"*.	c #645819",
"=.	c #1A1313",
"-.	c #686869",
";.	c #CDCCD3",
">.	c #F2EDFB",
",.	c #F1F3E6",
"'.	c #271318",
").	c #F9F62B",
"!.	c #F7DB27",
"~.	c #FADF22",
"{.	c #F5EB1A",
"].	c #FAE41C",
"^.	c #F3DD15",
"/.	c #FCEB14",
"(.	c #DDD71C",
"_.	c #120C1B",
":.	c #E6E6EC",
"<.	c #726E6A",
"[.	c #C8C438",
"}.	c #FFFB3B",
"|.	c #F6E333",
"1.	c #F5E21C",
"2.	c #F4DD1B",
"3.	c #ECE318",
"4.	c #FAE414",
"5.	c #FFF316",
"6.	c #938B17",
"7.	c #1B141D",
"8.	c #817C88",
"9.	c #F9F64A",
"0.	c #FDED3A",
"a.	c #F9DE1A",
"b.	c #F5E214",
"c.	c #F6D915",
"d.	c #1B0C14",
"e.	c #FFF13B",
"f.	c #EEDB0C",
"g.	c #EEDC13",
"h.	c #FCE60B",
"i.	c #150817",
"j.	c #363437",
"k.	c #241A08",
"l.	c #FEFC44",
"m.	c #525031",
"n.	c #181425",
"o.	c #3C3518",
"p.	c #ECE739",
"q.	c #ECD70A",
"r.	c #FEF50A",
"s.	c #2B2536",
"t.	c #15131D",
"u.	c #524427",
"v.	c #F2F13B",
"w.	c #F8DF35",
"x.	c #E8D518",
"y.	c #B4B6C3",
"z.	c #FEEC44",
"A.	c #FEF343",
"B.	c #F3DD0B",
"C.	c #AAA21C",
"D.	c #EBF1E6",
"E.	c #FCFDED",
"F.	c #72690E",
"G.	c #120814",
"H.	c #6A6676",
"I.	c #2A2328",
"J.	c #2B260A",
"K.	c #261D2C",
"L.	c #F4F9EA",
"M.	c #574E65",
"N.	c #FBE63B",
"O.	c #B9AB27",
"P.	c #978927",
"Q.	c #C9BB30",
"R.	c #B19A00",
"S.	c #0A030A",
"T.	c #85742D",
"U.	c #FAF71D",
"V.	c #2D282D",
"W.	c #6F6618",
"X.	c #080716",
"Y.	c #737582",
"Z.	c #F2EB4A",
"`.	c #B0AC41",
" +	c #938B32",
".+	c #1E1A36",
"++	c #3F4247",
"@+	c #ACA634",
"#+	c #1C212B",
"$+	c #B9B215",
"%+	c #716E75",
"&+	c #0D0212",
"*+	c #42362F",
"=+	c #32260C",
"-+	c #DAE1D8",
";+	c #FCEC47",
">+	c #574D58",
",+	c #4D4209",
"'+	c #90918A",
")+	c #CAC943",
"!+	c #AAA228",
"~+	c #312F44",
"{+	c #BBC5C6",
"]+	c #EEE428",
"^+	c #625123",
"/+	c #1B1506",
"(+	c #726518",
"_+	c #D1C630",
":+	c #848386",
"<+	c #EDF1FA",
"[+	c #AAB1A9",
"}+	c #918A13",
"|+	c #F3E20D",
"1+	c #9294A3",
"2+	c #4C4513",
"3+	c #3C3706",
"4+	c #55341D",
"5+	c #615E59",
"6+	c #D7D5E2",
"7+	c #6A5B0E",
"8+	c #EFE009",
"9+	c #6D6220",
"0+	c #736977",
"a+	c #484456",
"b+	c #585307",
"c+	c #150E0F",
"d+	c #5D636F",
"e+	c #EEF1DC",
"f+	c #786725",
"g+	c #E0CE12",
"h+	c #4B3E0B",
"i+	c #9BA09A",
"          . + . . @         # $ % & * $   = =   - . @ =       + ; > , ' ) ! ' ~ { ] ^ = =   # + /   ( = = = $ . . _ . :       = ",
"          . . . * *           < < . @ [     [     + } | 1 2 3 4 5 5 6 7 8 7 7 7 5 5 4 9 0 a b c [       : # [ & + / +     =     ",
"          d + + @ +           d & + e &   = = c f g h i j k l m n o p q q r r s p t u v w x 6 8 9 a { = =   . e . y y (         ",
"          + . . . +         z . d A   = ; B g h j C D E F G H I J K I L L L L M L N N N I O o P k i Q 9 1 R =   S < @ :   =     ",
". . . * +       #   + . * + <       > T U V W X Y Y I Y Z J ` Z F F F  ...+.+.+...` ` @.@...#.$.I %.&.*.=.6 -.;.  # [ >.+ ,.% . ",
". + . . +           . + . e z   c 2 '.w o ).G Y K K F J Z K +...J +.M +.+.!.!.+.Z !.~.M {.].%...^.+.L /.(.W i _.-.}   . :.[ . @ ",
". . . . +         # < @ d   e <.7 k [.}.Y J |.K O K K L J J J K M +.M +.L ].L ..J  .1.2.2.M M ~. .3.@.~.4.5.r 6.i 7.8.% = A A * ",
"+ . < + .           . @   ' 6 V t 9.Y ` 0.Z Y K Z J J Z J Z J +.J J J +.+.+.+.+.a.M +.+.+...1.1.b...a.a.2.c.1./.(.v d.4 b = @ * ",
"      =   >.,.% % *   ( -._.W 0.e.0.F K 0.K K J J K K J J J F J J +.+.+.+.+.M M M +.M ].......1.1.1...2.b.4.f.g.].h.s w i.T @   ",
"  = [   = e ,.S .   } j.k.D l.e.Y K K 0.K Z K J K K J J J J +.J +.J M M ..+.M b.M +.M ....].a...].^.].].2.^.1.].2.].1.+.6.k.m.c ",
"  =   =   + . <   | n.o.p.}.` K 0.K O Y K K J K J K J J J J +.L 1.+.J J  .` J Z M ..........]...1.1.b.2...~.2.g.q.h.a.q.r.u Q s.",
"  # #   : [ + = b t.u.v.Y w.e.0.K K 0.K K J K K K J J J J J +.+.I +...+.+.L ].].M M ....M 1...1...b.1.].@.2.^.#.4.x.^.r.o x 5 b ",
"* >.[ @ >.z z y._.u.}.e.z.v.A.J 0.K 0.K K K K K J Z J J J J J J +.+.+.J +.` +.+.+.M ..].......2...g...1.^.1.b.B.c.2.N C.k.9 ;.z ",
"% $ D.& & E.> Q u.p.0.Z O F F 0.K K K K K K J K Z J K J J +.F J L +.Z +...]...@.+.M ......].]...1.].1.^.b.#.f.^.]. .F.G.H.. ,.< ",
"@ . & :.= ; I.J.E 9.F K 0.Y I z.K 0.Y K K K K J K J J J J J J J +.M +.F ).L $.$.+.+.M ..........].M 2.2.4.f.2.Z s j K.b   + ; ,.",
". < < [ L.M.G.D }.F e.0.0.0.N.K K K 0.K Z K J K J K Z J J +.J +.|.L #.r O.P.P Q.M M ].....2.1.1.^.a.@...q.b.K R.d.0 < = % $ $ + ",
"  E.#   ! S.T.}.K 0.0.e.K K K 0.0.K K K K K J K K J K J J J ` +.|.U.u V.6 t.5 =.C $.b...M !.b.].]...b.B.h.@.W.X.Y.  [ (         ",
"  E.[ e =.o.Z.z.0.0.0.0.e.0.e.K K K K K K J K J J K J J J J J +.L p 7 6 i 7 I.4 d.O.#.1.b...M 2.^.].!.N [.j.K.~   + e           ",
"z     <.S.`.H v.0.K Y 0.K 0.K K 0.0.K K K K K J Z J J J J J J +.I u t.i 4 h 7 i n.T.I b.` 1.+.].1.M 4. +.+++} : . d +           ",
"    } d.u.).A.J 0.0.0.0.0.K K 0.K K K K K K J K J Z K J J J J +.$.@+Q #+#+4 i 6 8 $+K ..1.+.b.^.#.x.*.i. += = d . + + (         ",
"+ = %+&+@+}.0.K 0.Y 0.0.0.K K K K K K K K K J K J K J J J J J +.L F *.Q t._._.*+P Y ..1.4.!.~.N O.=+5 | = * # #   #   + . / + $ ",
"* -+4 j Z.;+K 0.0.0.0.0.0.Y O K K K Y Z K J K J K J Z J J J +.+.Z M #.O.P.6.D r I b.!...].].L l S.>+} : :.[ (         + d @ @ d ",
"z ~ X.C l.K z.e.e.e.0.0.0.K K 0.0.K K K K K K J J K K J J J +.+...K +.#.Y $.#.J +.!.2.1.$.s ,+_.'+L.: :.,..           @ * d / + ",
"= -.X.)+Y e.Z e.O Y K 0.0.K K 0.0.K Y K K K J Z J Z J J J J J J J {.O 1.w.].M M ..~.M $.!+k.~+{+  [ . _ < * =         < + + + . ",
"= g x p.0.z.J A.0.0.0.0.0.K K K 0.K K K K J K J J J J J +.+.+.F M J  .......Z b.a.#.]+v &+2 e = d           ( < . + .           ",
"; 4 ^+9.e.0.Y 0.0.0.e.K K K O Y K K 0.J K J J K J J J J J J +.L J @.N.+.L ].@.Z I p j d.'+[ [ % *         = _ . . . .           ",
"> _. +l.N.Z 0.e.0.0.0.K 0.K K O 0.K K J K K Z Z J J K J L J +.+.].` ].J B. .+.N m /+g }   @ . >..           + . $ @ <           ",
"| X.@+G 0.0.;+Y e.e.0.K K K 0.Y K Y K K J K J J J J J J +.J L +. .J z.4.Z F x.(+G.-.[   & . % % .           + + . . + z         ",
"' n.[.G N.K ;+J 0.K 0.K K K K K K K K K J K J K J J J J J +.+.+.Z 2.M ..U.[.=+Q ) = + . [     =   + + . + +           + + @ . . ",
"1 h _+G K 0.z.Y 0.e.0.K 0.K K 0.K K K K K J K J J J J J J J +.J J L #. .m _.3 ;.z + % <   =       + . . . . +         . d * + < ",
"0 d._+l.z.e.z.e.0.0.K e.K 0.K K K K K F J K J K Z J J J J +.+.L F w.J x.I._., = e < S . [   = =   + . . + .           + . . . . ",
"0 8 )+}.O Y 0.K 0.e.0.K K 0.0.K K K K K K J K J J J J J +.+.+.+. .+.!.Y $+7 7.~   % % : z E.      + + . . .           _ * + . . ",
":+G.[.Y 0.K 0.K Y K K 0.K K K O K K K K J K J Z J J J J +.+.L +.K b.Z ~.N Q.=+G.| # : = [ <+% * + +         + . . + .           ",
"[+_.Q.e.O A.0.Y 0.0.K 0.K 0.K Y K K K K K J K J J J J J L +.F +.3.Z ].+.N.{.E ^+_.~   = + < < @ .           + . . . .           ",
"-+5 m l.0.z.K 0.0.K K Y 0.K K K K K K J J K J K J J J J J J +.+.J J b.4.~.~.L $.}+i.' = . [ * S .           < * + $ & #         ",
"# g W.l.0.N.e.0.0.K O Y 0.K K K K K K K K J J K J J J J +.+.L +.J @.+.L M +.M |+I $+7.1+  % . $ .           + . . . +           ",
"  H.2+v.e.I 0.N.K 0.K K K 0.K K F K K K J K J J J J J J L +.+.+.].J !.Z +.g.].Z g.$.n 8 f = = =   + . $ d @           + + @ . . ",
"  ~ /+)+l.J 0.z.Y 0.K 0.0.0.K K K K K K K J J Z J J J J +.+.+.+.+...K ` ].K J b.+.2.$.p k.H.      + . + . .           . d * + < ",
"+ d V.m l.Z J A.K K Y 0.K K K K K K F Z J K Z J J ` J ` +.+.+.M L +... .+...1.].1.1.@.#.x.x T     + . + . .           + . . . . ",
"d   %+2+l.;+I O Y 0.K 0.0.K K K K K K K K Z J Z J J J J +.+.+.+...+.+.b.#.Z !.......+.b./.q 3+g + + . . + .   #       _ * + . . ",
"  = -+5 )+A.J Y 0.0.e.K z.O Y N.K K K J K J J J J J J J +.+.+.+.+.M M +.M ......].+.2.@.!.r.r 4+~+R   : #   >.$ < ( +           ",
"      5+k A.0.K A.O Y  .K 0.F J K K K K J J J J ` J ` +.+.+. .+...+.M M M ..M ..].a.].b.M B.b.@.,+4 6+: E.  @ . . d .           ",
"=     c h Q.}.O J L e.K K 0.0.K K Z K K K J J Z J J J J +.+.+.M M +.M +.M ........2.+.^.b.].^./...w n.{   = & d & . +   +       ",
"    :   %+2+9.K e.K K N.z.K Y N.K K K J K J J J J ` J +.+.+.+.+.M M M M M ......+.1.@.+.B.].!.x.4.3.*._., : & _ @ < .           ",
"d * < = -+K.m 9.O z.K ..A.K J K K K K J J J J J J J J J +.+.+.+.M +.M +...M ......].g. .a.a.].].2.4.b.7+X.!   L.[     _ + . . + ",
"& + $ ; z y.k.)+H O A.J K K J J K K K K K J J J J J ` +.+.+.M +.M M M M  .].....1.M 1.1.2.L ^.^.!.@.8+{.9+S.!         ( . _ . . ",
"& . d @ <   0+J.p.G |.;+0.K 0.0.K K K J K J J J J ` +.+.+. . .M M +.M +.M M ..~.L 2.]. .^.a.@.M 2.h.].@.b.W S.8.    + + d d . * ",
". $ @ . [ =   a+4+A.U.N.K J 0.K K K K K Z J J J J J J +.+.M +.M +...M M ..M ....~.1.1...a.^.].|+b.^.B.g.1.|+}+X.a     @ * + + . ",
"          . < e s.b+Z.e.Z 0.K F J K 0.K K J L J J +.J +. .M +.+.M M M ........].]...1.2.].].2.4.2.^.B.].!.B./.P X.<.[ E.    ( = ",
"        # . + + 6+s.w p.I +.Z Y N.K J J +.K K  .+.+.J L +.+.+.+.+.+.M ..M ......1.1.1.].^.^.1.2.@.b.g.B.B.a.2./.&.c+H.  (       ",
"        = . . . z } ~+x X G K O +.J F K Z K 0.|. .J F +.+.+.+.M M M M M ......1...1.1.1.2.4.a.b.b.b.1...f.|+2.g.4.s k.0+  = =   ",
"          ( < . < = . g d.@+}.I 0.Y J J Z Z L +.J L +.+.+.M M M ..+.M ..].M ..].1...1.1.].2.1.^.c.+.g.f.b.^.^.q.q.h.%.3+d+= =   ",
"+ + + . +         [ L.+ -.&+(+X )...|.J J Z Z {.J J  .+.+.+.+. .+. .M ......].....1.1.].a.b.2.].a.B.1.2.b.^.^.B.c.r.&.i j.c + < ",
". . . . +       = = . . : b =.8 P.Z.H  .J J +.K +. .+.J +.+.+.....+.M ........2.2...1.1.1.].].^.b.2.f.B.a.c.4.].2.7+Q a / : A e+",
". < @ . +           < . .   } %+&+J. +q I e.A.@.J J J +.M +.......M M M ......1...1.1.].].^.b.^.g.b.f.^.^.r.f.}+x >+} = : S D.& ",
"+ . . + .         z * @ . %     > >+S.'.f+t ]+).I J +....... .+.+.M M ......a...1...1.2.2.^.^.^.].B.L J g+}+j 3 y.  ( ,.d . + <+",
"          . + . $ .           . # ( | 2 Q G.3+C O.q Y $.I L J L ` ..2.%...2.......@.@.1.1.4./.5.#.x.&.*.x 2 y.z   < .           ",
"          . . . . +           . < ,.L.E.} :+9 i.S.i 2+v !+_+@.].J L I I L $.L L #.#.5./.1.q O.v 2+x g :+} = z . @ d /           ",
"          . + + . +         + . % < % .   =   6+B >+4 Q &+&+i o.k W.C W 6.6.}+}+v W.k h+J.8 V.a+Y.>   # # : + . . . &           ",
"      =   < . . + +       #   + + < S :   ( = =   @ ; { i+a 0 ++s.4 n.n.Q Q .+.+s.9 a+Y.1+| } L.    = =     $ % . $ + #         ",
". . < @ +         + @ + + + (           . _ & . & #           ( . ; -+e ] ; e ; -+( =             - >.$ < *           + + + . . ",
"+ . * d .           . . . d +     = = z d + < & [     =   + :.< * $     :   =   @ @ d . [     = = % d + . <           & . . . < ",
". . . . +           . + . . +         ( . $ . % ,.        # * d d *     =   # _ d < % e z       = & _ _ d @   #       . . . . . ",
"$ . . + +           . < . . +         ( @ d + < [       = E.d . + % +         : * + . *           $ * . . +           . $ + . @ "};
