/* XPM */
static char * pacman_down_xpm[] = {
"64 64 232 2",
"  	c #F2EEF3",
". 	c #EDEDED",
"+ 	c #F2F2F2",
"@ 	c #FEFDFD",
"# 	c #EDF2EC",
"$ 	c #E6EAEC",
"% 	c #FCFDF4",
"& 	c #F6FBFB",
"* 	c #DAE1D8",
"= 	c #AAB1A9",
"- 	c #848386",
"; 	c #575658",
"> 	c #7F8480",
", 	c #A5A3A4",
"' 	c #B5B7B5",
") 	c #CACBCA",
"! 	c #E2E2DD",
"~ 	c #F6FBF4",
"{ 	c #F1EDED",
"] 	c #F2F2ED",
"^ 	c #EBECE5",
"/ 	c #ECECF2",
"( 	c #B3AEB5",
"_ 	c #6A6676",
": 	c #433A45",
"< 	c #1A1A23",
"[ 	c #120C1B",
"} 	c #120814",
"| 	c #261A17",
"1 	c #1B0C14",
"2 	c #251925",
"3 	c #181425",
"4 	c #080716",
"5 	c #25222C",
"6 	c #686869",
"7 	c #FCFDED",
"8 	c #F2EDFB",
"9 	c #FBF5FD",
"0 	c #716E75",
"a 	c #2D282D",
"b 	c #1B1506",
"c 	c #4C4513",
"d 	c #6F6618",
"e 	c #9B9728",
"f 	c #C9BB30",
"g 	c #C8C438",
"h 	c #CAC943",
"i 	c #D1C630",
"j 	c #ACA634",
"k 	c #938B32",
"l 	c #625123",
"m 	c #392C14",
"n 	c #D8D9D6",
"o 	c #F4F4FA",
"p 	c #EBF1E6",
"q 	c #D6D6CC",
"r 	c #615E59",
"s 	c #F2F13B",
"t 	c #FEFC44",
"u 	c #FFF13B",
"v 	c #FEF234",
"w 	c #FFFB3B",
"x 	c #FEFD34",
"y 	c #F9F64A",
"z 	c #ECE739",
"A 	c #797325",
"B 	c #463915",
"C 	c #0D0212",
"D 	c #726E6A",
"E 	c #E5E5E4",
"F 	c #E6E6EC",
"G 	c #5B5116",
"H 	c #FDED3A",
"I 	c #F6E938",
"J 	c #FEEC44",
"K 	c #FCEB33",
"L 	c #FBE63B",
"M 	c #F2EB4A",
"N 	c #524427",
"O 	c #0A030A",
"P 	c #1A1313",
"Q 	c #999799",
"R 	c #F4F9EA",
"S 	c #FBF5F5",
"T 	c #B4B6C3",
"U 	c #261D2C",
"V 	c #FEF343",
"W 	c #FCEC47",
"X 	c #FCE533",
"Y 	c #FBE92C",
"Z 	c #FDF32C",
"` 	c #F9F62B",
" .	c #B0AC41",
"..	c #3C3518",
"+.	c #574E65",
"@.	c #736977",
"#.	c #241A08",
"$.	c #FFFD2D",
"%.	c #85742D",
"&.	c #2A2328",
"*.	c #F1F3E6",
"=.	c #484456",
"-.	c #2B260A",
";.	c #BBB934",
">.	c #170C24",
",.	c #EDEBFC",
"'.	c #D7D5E2",
").	c #2B2536",
"!.	c #55341D",
"~.	c #DDDA2A",
"{.	c #A9ABA7",
"].	c #585307",
"^.	c #FCEB24",
"/.	c #F5EA2C",
"(.	c #15131D",
"_.	c #312F44",
":.	c #574A17",
"<.	c #FAF71D",
"[.	c #F6E333",
"}.	c #F6E322",
"|.	c #F5EA24",
"1.	c #363437",
"2.	c #D8D538",
"3.	c #FAE62A",
"4.	c #F8DF35",
"5.	c #726518",
"6.	c #F6E42B",
"7.	c #857B24",
"8.	c #1D1A1C",
"9.	c #342E2F",
"0.	c #978927",
"a.	c #BBB527",
"b.	c #221C1B",
"c.	c #574D58",
"d.	c #5C5965",
"e.	c #E8E6F4",
"f.	c #271318",
"g.	c #E2D634",
"h.	c #63596B",
"i.	c #786725",
"j.	c #C7B928",
"k.	c #2A1D31",
"l.	c #EEF2F3",
"m.	c #928A93",
"n.	c #3B3648",
"o.	c #3C3706",
"p.	c #EEE428",
"q.	c #150817",
"r.	c #F3DE23",
"s.	c #F5EB1A",
"t.	c #B9AB27",
"u.	c #837F92",
"v.	c #F9EEFE",
"w.	c #272415",
"x.	c #C3C5BC",
"y.	c #86791A",
"z.	c #FEF225",
"A.	c #9BA09A",
"B.	c #AAA228",
"C.	c #F9E525",
"D.	c #797A7A",
"E.	c #7D761C",
"F.	c #48484A",
"G.	c #3F4247",
"H.	c #FAE41C",
"I.	c #ECE318",
"J.	c #F5E21C",
"K.	c #C4B71D",
"L.	c #F5E214",
"M.	c #F4DD1B",
"N.	c #A29724",
"O.	c #D5C927",
"P.	c #F7DB27",
"Q.	c #FCEB1B",
"R.	c #645819",
"S.	c #B4B6A9",
"T.	c #EDE11C",
"U.	c #FAE414",
"V.	c #FADF22",
"W.	c #E8D518",
"X.	c #1C212B",
"Y.	c #E6D928",
"Z.	c #E0DFDC",
"`.	c #938B17",
" +	c #FEF31B",
".+	c #B9B215",
"++	c #F3DD0B",
"@+	c #A09D94",
"#+	c #EEDC13",
"$+	c #1E1A36",
"%+	c #918A13",
"&+	c #F9DE1A",
"*+	c #32260C",
"=+	c #1B141D",
"-+	c #AB9816",
";+	c #F3E20D",
">+	c #CDCCD3",
",+	c #42362F",
"'+	c #D3C81A",
")+	c #FFF316",
"!+	c #F0E7EC",
"~+	c #737582",
"{+	c #4B3E0B",
"]+	c #FCEB14",
"^+	c #F3DD15",
"/+	c #9294A3",
"(+	c #90918A",
"_+	c #FEF50A",
":+	c #EDF1FA",
"<+	c #4D4209",
"[+	c #BBC5C6",
"}+	c #F6D915",
"|+	c #E8E7E7",
"1+	c #FCE60B",
"2+	c #E4E7D9",
"3+	c #B2A513",
"4+	c #EEDB0C",
"5+	c #EFE009",
"6+	c #6A5B0E",
"7+	c #E0CE12",
"8+	c #6D6220",
"9+	c #ECD70A",
"0+	c #DDD71C",
"a+	c #817C88",
"b+	c #B19A00",
"c+	c #150E0F",
"d+	c #F2F1DE",
"e+	c #72690E",
"f+	c #AAA21C",
"g+	c #5D636F",
"h+	c #525031",
"i+	c #EEF1DC",
"  . + . @ @ @ @ + . . + @ @ @ @ . # # $ @ % @ @ $ + @ @ & * = - ; ; > , ' ) ! % % ~ { + @ ~ @ @ . ] ^ { @ @ @ @ + . . . @ @ @ @ ",
". . . . @ @ @ @ . / . + @ @ @ @   . + { @ @ @ % @ $ ( _ : < [ } | 1 2 3 4 [ 5 : 6 ( * % @ @ 7 7 / .   8 & % % @ . . + . @ @ @ @ ",
". . { / @ @ @ @ . ] . + @ @ @ @ ] $   / 9 @ @ * 0 a b c d e f g h i i g j k l m 4 4 5 0 n @ o & / # p o & @ o @ / . . . @ @ @ @ ",
"+ . $ ] % @ @ @ + . . . @ @ @ @ . ] ! % @ q r < c e h s t t u v w t x x x t y z h A B C 1 D E @ o F # ] @ % @ % + . . { @ @ @ @ ",
"+ + . + @ @ @ @ . + + + @ % & @ o / ~ * 0 2 G h t t t u H H I H I J K L H L u H v t M j N O P Q R % # 8 9 @ % @ . + + + @ @ @ @ ",
"@ @ @ @ / . . . @ @ @ @ S . . . % @ T U c f V V W X Y Z L J V K v u H K H X H J u K W w `  ...O +.! 7 ~ o + E 8 @ @ @ @ + $ . . ",
"@ @ @ @ . + . + @ @ @ @ / . + / @ @.#.e y w H Y Z Y H H u K H H H J J W W H v Y X J K H V $.M %.} &.) ~ + . *.*.@ @ @ @ . + . + ",
"@ @ @ @ . + . . @ @ @ @ . . + E =.-.h y K I K v I V J L H H v K K u v Y v u H V u u H K Y s J w ;.-.>.T % / ,.^ @ @ @ @ . + . . ",
"@ @ @ @ + . .   @ @ % @ / ~ '.).!.z $.I u Y V H v K v K H H H v H H H H u H H H I u H H H H H K w ~.N [ {.@ . ^ @ @ @ & . ] { . ",
"@ @ @ + + + + . ~ @ % o % n ).].V x I J K ^.I H H K H H K K H K u H u K u H H H v u H v H K H H /.y z N (.' @ { @ & @ @ + + { ] ",
". . . ] @ @ @ @ { / . R . _.:.M <.[.V K K u v u K v K K I K K K H K H H H H u H K H H H H v H H u /.H w N 3 n @ . / . + @ @ @ @ ",
"/ + . + @ @ @ @ ] . . + : m z u L W Y }.L K |.K H H H K v v H H K u K K K K K H H H H H H H H u H K X u s ..1.S ] ] + . @ @ @ @ ",
". . . + @ @ @ @ . . 9 6 1 2.Z X K H K V J K K J H K H K H H K K K K H K K H K H H H H H H K u K H H I J v z #.6 @ $ . { @ @ @ @ ",
". . $ + & @ @ @ ^ @ {.C j x 3.H Y K K K K H H I K K H H K K H K H H K K K K K K K K v K K H H K H v /.s 4.w ;.[ , @ E + @ @ @ @ ",
"+ + + S @ + @ @ @ n P 5.w K X K H H Y Y v H /.v K K K K K K K K H K K K H K I K K K I K K K u K L Z /.V u 6.t 7.8.E ~ / ~ @ @ & ",
"@ @ @ @ + . . . @ 0 | 2.Z I v /.K H Y K L K Y L K K K K K K v I K K H K v I v K H H K K H K K H K J H Y H K u H 9.D @ @ . $ /   ",
"@ @ @ @ + ^ / & ) C 0.` H 3.L Y K K K K K K K K K K K /.K K K K K K K K K H K H H H K K K H K H K K K H K H v u a.b.q @ $ # / ^ ",
"@ @ % @ / / *.S c.-.M }.v Y K K K K K K K X K K K K K K K K K K K K K K v K K K K K K K K H K K K H K K K K K H y G d.@ e.+ . # ",
"@ @ % @ ,.^ R ' O k $.[.Y /.Y H K K K K K K K K K /.K K K K K K K K K K K K H K v K v K K K K K H v K H H I K /.v g f.) @ E ] { ",
"S S ~ @ 9 . 7 d.f.g.|.Y Y K Y K K Y K Y Y K K Y K X K K K Y K K K /.K K K Y Y K K K X K K K K K K K K K K v H K 6.w :.h.% # o   ",
"] . $ . @ @ n >.i.Z Y Y X X 3.K X K K Y K K Y K K Y K Y K Y K Y K Y K Y Y K K K K K K K K K K K X K K K K K K H H v j.k.! @ @ @ ",
"$   + l.S % - } a.u Y X X K K Y Y Y Y Y Y Y Y Y X K Y K Y K Y K Y K Y K K K Y Y K K Y K K K Y K K K K K Y K X K X Y ` 9.m.% @ % ",
"+ . / # % @ n.o.p.V 3.X ^.H K ^.Y Y Y Y Y Y Y Y Y X Y Y Y Y K Y K Y K Y Y X Y K Y K K Y Y K K Y Y K Y K K Y K K v [.x 7.: % o % ",
"/ ^ # . % '.q.A ` r.K s.3.[.|.Y Y Y Y Y Y X Y Y X Y X Y K K Y X Y K Y K Y X K Y X Y Y K K Y Y K K Y K K K K Y Y K K v 2.2 q @ @ ",
"o *.o # @ m.O t.Z Y 3.Y Y |.3.Y Y Y Y Y Y Y 6.Y Y Y Y Y Y Y Y Y Y X Y Y Y Y Y Y Y Y K Y Y X Y K Y K X Y K Y K Y X I K v B u.@ v.",
"@ @ @ & ] c.w.g.Y Y |.Y ^.Y 3.3.Y 6.Y Y 6.Y Y Y Y 6.Y Y Y Y Y Y Y Y Y Y Y Y Y Y X K Y K X Y K Y K Y Y X Y K K K Y K K v A : + . ",
"@ @ @ @ ! 5 c v 3.Y 3.|.3./.Y Y Y 3.6.Y Y Y 6.Y Y Y Y Y Y Y Y Y Y Y Y Y Y K Y Y Y K X Y K Y Y K X Y K Y Y Y Y K Y K /.Z ;.2 n ] ",
"@ @ % @ x.>.y.z.}.3.Y 3.3.3.^.3.3.3.3.Y 3.Y 3.Y Y 6.Y Y Y Y Y Y Y Y Y Y Y Y Y Y Y Y Y Y Y Y Y Y Y Y Y Y Y Y Y Y X ^.Y v ~.w.' % ",
"% @ @ @ A.C B.Z }.C.3.3.3.3.3.|.3.3.3.3.3.3.3.3.3.3.3.^.3.Y ^.3.3.Y Y Y 3.^.Y 3.Y Y Y Y Y Y Y Y Y Y Y Y Y Y Y Y Y Y X X /.B > @ ",
"7 & + @ D.C i ^.}.3.3.3.C.3.3.C.C.|.3.3.3.3.3.3.3.3.3.3.3.Y 3.3.3.3.Y 3.Y Y Y 3.Y Y Y Y Y Y Y Y 3.Y 3.Y Y Y Y Y X Y K Y x G d.@ ",
"$ { F @ ; w.r.Y |.}.3.3.C.3.3.3.3.|.C.3.3.3.|.3.3.3.3.3.^.3./.^.3.3.3.3.^.3.3.3.Y 3.3.Y Y Y Y 6.Y Y /.Y 3.3.3./.Y Y 3.6.$.E.F.@ ",
". $ / S G...H.^.3.}.}.|.C.C.3.3.C.C.3.3.3.C.3.3.3.C.3.3.3.3.3.3.3.^.Y 3.3.3.^./.Y 3.3.3.3.3.3.3.3.Y Y Y 3.^.Y Y 3.K }.X Z e 5 + ",
"+ $ { . ).G Y 6.3.}.}.3.}.C.3.C.3.C.C.C.C.C.}.3.}.^.3.H.Y Y I.K |./.Y X |.H.Y C.Y }.X ^.z.Z ^.[.[.3.^.3.Z J.3.Y Y C.Y /.Y K.< ! ",
"^ {   ! 5 d ^.}.C.C.3.|.3.C.3.C.}.3.C.3.C.3.3.C.3.3.}.Y r.Y X L.3.4.^.M.Y 6.r.Y s.K C./.j N.O.<.^.C.3.3.3.3.Y 3.Y 3.3./.K j.< ) ",
"+ @ @ * 3 A Z M.C.C.C.C.C.C.C.C.C.C.C.C.C.C.C.C.3.}.K P.3.L.H.X P.Y Q.C.J H.L |.I 3.Q.R.>.(.b.N.Q.3.X 3.}.Y C.3.Y C.C./.Z O.8.S.",
"@ @ @ E 3 7.Z T.}.C.}.}.}.C.}.}.C.3.C.3.C.3.C.3.L.|.6.X ^.U.3.V.v W.|.}.U.Y 3.}.J.Q.t.>.X.w.8.a Y./.3.Y 3.Y C.3.3.3.3.|.^.g.b., ",
"@ % 9 Z.>.`.^.}.}.}.}.}.H.}.C.}.}.C.|.}.C.C.C.C.Q.3.H.3.C.V.L  +.+&.e <.X ++^.}.4.v 0.(.X.5 w.8.t.` }.3.3.|.}.3.3.^.3.}.^.g.| @+",
"@ @ @ ! >.`.z.M.}.}.}.}.C.}.}.}.C.C.H.C.}.}.}.}.X }.K #+3.V.s.f b.[ [ g /.|.H.}.H.z.`.[ 5 2 b.(.0.^.H.6.^.6.3.3.3.H.P.3.^.Y.b.Q ",
"@ & % E $+%+^.}.&+}.}.H.}.}.}.}.}.}.}.}.}.}.C.}.P.J.Y H.C.^.~.*+=+S.F.*+W.3.r.X C.Q.;.[ w.b.&.< -+z.}.3.H.Y C.C.3.^.P.3.^.Y.b., ",
"9 l.@ ! $+%+^.}.}.J.M.}.H.J.}.H.}.V.}.}.}.}.}.}.}.H.L.X ;+z.l } ( % >+>.5. +X L.C.Y Y.,+8.w.5 P f z.r.3.H.X L.C.3.}.3.3.C.'+b.( ",
"{ $ ] * ).y.Q.}.J.}.M.}.J.}.J.H.V.^.J.}.3.}.H.H.}.J.3.#+Z %+[ ' @ E ~ @+} e Z &+}.3.Z -+| 3 1 A C.3.3.3.C.C.C.C.&+Y X }.^.O.< x.",
"+ / ] S n.d Q.r.}.J.}.J.}.J.J.}.J.M.C.H.J.M.&+3.}.J.M.z..+q.( & ^ / + % 6 b O.Q.V.P.L.v .+%.t.z.C.3.C.C.C.}.3.3.C.|.P.6. +a.< Z.",
". ^ $ % =.G )+r.J.J.J.J.J.J.J.J.J.H.J.#+r.3.H.M.3.r.z.K.=+, @ 9 ^ ,.^ + o : B p.C.M.P.}.K Z Q.L.H.C.}.}.}.}.C.C.3.J.V.6. +N.5 !+",
"{ E . @ ~+{+]+J.M.H.J.H.J.J.H.M.}.|.J.|.3.^+L.r.L.Q.O.| /+% % % 9 . / . @ n 1 y.z.J.}.J.}.L.J.}.}.}.}.H.}.}.}.H.3.M.C.r. +y.n.% ",
"@ ~ o @ /+-.J.J.M.H.J.&+H.M.^+H.&+^+M.&+++L.C.P.]+W.#.u.@ . + o ~ o @ o # @ (+C B.z.H.U.J.6.L.C.}.}.}.}.C.}.}.}.3.M.s.r.Z :.; % ",
"@ @ @ @ ' | g.U.^+^+H.L.M.U.^+H.^+&+^.&+H.H.++_+g.m _ % ^ o / :+7 @ % @ . ] o d.#.'+H.P.3.J.}.P.M.}.H.}.J.}.H.}.}.C.H.}.I m D.@ ",
"@ @ @ @ n a t.]+^+L.H.M.J.&+J.M.H.r.^+H.P.^+L.Y.o.h.@ % . { / ^ @ % @ @ ^ . o E _.<+^.V.L.3.C.L.J.}.H.}.}.H.&+}.J.C.T.Q.j.8.{.& ",
"@ @ % @ R =.y.)+^+^+^+H.^+L.M.U.;+C.^+H.W.]+r.!.: @ @ %   ,.] { @ % @ % ^ 8 ^ % [+[ E. +^+H.M.H.J.}.}.M.J.}.}.J.J.V.}.z.-+| q + ",
"@ % % @ @ ~+c Q.H.#+L.&+}+L.r.M.L.M.P.M.U.}.<+_.+ @ @ @ . . . + @ @ @ @ . . { $ @ (+O t.Q.J.^+H.^+H.J.}.}.J.H.J.L.|.^+Z G n.o |+",
"  # ^ v.@ ) m W.++L.M.++3.L.L.^+^+1+r.U.I.:.5 2++ + + + @ @ @ + + + + + @ @ @ @ o R c.*+W.C.H.}.&+C.H.#+L.J.^+J.}.I.3.T.w.D.@ @ ",
"{ l.$ 8 % @ : 3+^.4+4+J.#+J.#+++++H.5+L.R.3 '.@ . . . . @ @ @ @ + . . + @ @ @ @ . 9 n < R.U.P.L.r.M.J.}.J.L.H.}.&+r.^.3+>.x.@ S ",
". l.+   % & - R.Y ^+++M.4+}.++H.#+r.s.6+[ x.9 9 . + +   @ @ @ @ . . . . @ @ @ @ l.F 9 ' q.k  +++}.M.^+J.H.M.H.M.&+V.]+R.n.% @ % ",
". $ . / @ & n m 7+^+&+L.L.4+++P.J.L.8+4 S.@ 7 & + . . $ @ @ @ @ . + . + @ @ @ @ / *.F % k $+g 1+9+U.L.^+r.}.M.L.M.U.0+P > % 9 % ",
"+ ] / { @ 9 % d.%+_+}+^+^+;+&+++;+7.O Q 9 % @ @ . . . ] @ @ @ @ . . . + @ @ % @ { . o { % G.1.r.L.4+Q.J.M.V.^+U.}+)+7.8.2+@ & % ",
"@ @ @ @   + ~ T B 4+U.^+^+M.M.]+%+O Q @ # # ] 8 @ @ @ @ + / + + @ @ + @ + + l.S % @ S & % n U d K M.4+L.^+M.J.4+J.Y.w.6 % . o   ",
"@ & @ @ ^ . . ~ F.%+H.++9+#+]+-+4 a+@ R l.$ .   & @ @ @ . { . . @ @ @ @ + . . / @ @ @ & $ 9 ( 4 b+X ^+++Q.#+H.#+]+`.[ >+@ E # . ",
"@ @ @ @ . . ] @ T m M.}+9+U.3+4 D.@ @ o ] # . / @ @ @ @ . + . . @ @ @ @ .   . . @ @ @ @ . . @ ~+1 '+H.}+U.9+M.H.0+w.6 @ ,.. + . ",
"@ @ @ @   . $ / @ c.6+_+1+'+c+D @ @ @ @ / . $ S @ @ @ @ .   . + @ @ @ @ . ] . + @ @ @ & + $ + @ ; B |.M.W.1+H.1+y.=+n & / d+|+l.",
"@ @ @ @ + # |+. S n >.3+T.#._ o @ + @ @ . + . + @ @ @ @ + # . . @ @ @ @ + / . . @ @ @ @ + + E o / U e+ +^+&+J.'+1 a+@ o ] d++ . ",
". . # + & @ @ @ *.% D.w.o.@.@ 7 ] + S l.@ @ @ @ l.+ . + @ & @ @ l.+ . + ~ @ @ @ / ] + + S @ @ S % {.} f+_+9+3.:.5 ^ . 8 9 S @ 9 ",
"  . . + @ @ @ @ $ 9 |+1.g+@ S @ { $ . + @ + @ @ { . $ + @ @ @ @ { . $ + @ @ @ @ + { $ . @ @ @ @ ^ @ _ #.j._+`.q.{.% F + @ @ @ @ ",
"+ . . + @ @ @ @ . ,.9 q % % @ @ + $ l.. @ @ @ @ + . { ] @ @ @ @ + . { ] @ @ @ @ + $ ] |+@ @ @ @   + . n.m N.#.h.% e.o *.% @ % @ ",
". . . . @ @ @ @ + p e.+ % % @ S + . . . @ @ @ @ . . + . @ @ @ @ . . + . @ @ @ @ + |+] + @ @ @ @   ! *.>+< >.h+] ] e.. ^ @ @ @ @ ",
"] . / . @ @ @ @ :+# i+/ @ @ @ % . { . + @ @ @ @ . . / . @ @ @ @ . . / . @ @ @ @ . + $   @ @ @ @ + *./ ~ {.).q @ { { ] . @ @ @ % "};
