/* XPM */
static char * phantom_xpm[] = {
"64 64 224 2",
"  	c #FFFFFF",
". 	c #EDEDED",
"+ 	c #F2EEF1",
"@ 	c #F2F2F2",
"# 	c #FBFBFB",
"$ 	c #F2EDED",
"% 	c #EDEDF1",
"& 	c #E5ECEB",
"* 	c #EDF2F2",
"= 	c #FBF5F4",
"- 	c #F5FDFD",
"; 	c #F9F9F9",
"> 	c #FCFCFC",
", 	c #FAF8FA",
"' 	c #FDF5FB",
") 	c #F2F1ED",
"! 	c #ECF1ED",
"~ 	c #ECEBE5",
"{ 	c #F3FCF5",
"] 	c #E4E4EA",
"^ 	c #FEFAFE",
"/ 	c #EDE5EB",
"( 	c #F3EBE5",
"_ 	c #EBF3E5",
": 	c #E3F2EC",
"< 	c #E3ECE4",
"[ 	c #EDFBFC",
"} 	c #EBFBF3",
"| 	c #E3FBF6",
"1 	c #F8E6D9",
"2 	c #D9AEAC",
"3 	c #E59C99",
"4 	c #F2A8A3",
"5 	c #E5A09C",
"6 	c #E49A95",
"7 	c #E59593",
"8 	c #EB9A97",
"9 	c #DA9594",
"0 	c #FDFEEF",
"a 	c #E9E8DB",
"b 	c #ECF5FA",
"c 	c #E4D4D4",
"d 	c #EC262A",
"e 	c #EC1A0E",
"f 	c #DB282A",
"g 	c #F41309",
"h 	c #EA2616",
"i 	c #E31C1C",
"j 	c #F31C1B",
"k 	c #EC241D",
"l 	c #F41617",
"m 	c #DD1F17",
"n 	c #EC1C14",
"o 	c #EC2A2A",
"p 	c #E6D9DA",
"q 	c #ECEEFB",
"r 	c #FCFCF5",
"s 	c #E3DBD4",
"t 	c #E32B2B",
"u 	c #F9231E",
"v 	c #F43235",
"w 	c #F92523",
"x 	c #ED2924",
"y 	c #EB3432",
"z 	c #DBE2D9",
"A 	c #FBEEF4",
"B 	c #F0E6E4",
"C 	c #F5EDF9",
"D 	c #DAD8D3",
"E 	c #E6F7F4",
"F 	c #E8C9C5",
"G 	c #E4433A",
"H 	c #E5231C",
"I 	c #E4272D",
"J 	c #ED2624",
"K 	c #F32A2B",
"L 	c #E62622",
"M 	c #F32A25",
"N 	c #F22523",
"O 	c #EC2A1D",
"P 	c #FCEBEB",
"Q 	c #FDECE5",
"R 	c #F2E5EC",
"S 	c #E9F9EA",
"T 	c #E7D6C4",
"U 	c #DB4B47",
"V 	c #EC3C3A",
"W 	c #F33944",
"X 	c #DC434A",
"Y 	c #E42314",
"Z 	c #E52C23",
"` 	c #F42731",
" .	c #FB292D",
"..	c #E4F2F9",
"+.	c #F81B28",
"@.	c #F6312A",
"#.	c #F2322B",
"$.	c #F2231D",
"%.	c #ED2A39",
"&.	c #F32A1C",
"*.	c #EB3126",
"=.	c #E4C4BE",
"-.	c #E68787",
";.	c #D48B84",
">.	c #E3322C",
",.	c #F3252A",
"'.	c #E22C35",
").	c #E1847F",
"!.	c #F40B18",
"~.	c #F31C22",
"{.	c #E62B1E",
"].	c #FA1915",
"^.	c #D88786",
"/.	c #DEECF4",
"(.	c #E2F8E6",
"_.	c #EA1C1B",
":.	c #E9312A",
"<.	c #F4F5FA",
"[.	c #E4E5E2",
"}.	c #D48479",
"|.	c #F23E3D",
"1.	c #E63635",
"2.	c #EA2D34",
"3.	c #DDEBEB",
"4.	c #F5DEE7",
"5.	c #E4383C",
"6.	c #F8242C",
"7.	c #F68783",
"8.	c #FCE7DF",
"9.	c #FDE5E3",
"0.	c #F4847A",
"a.	c #F82C25",
"b.	c #EA311F",
"c.	c #DADBE2",
"d.	c #E93729",
"e.	c #E7150F",
"f.	c #F79997",
"g.	c #FC9494",
"h.	c #F52616",
"i.	c #F3333D",
"j.	c #F30B0C",
"k.	c #F08792",
"l.	c #EB1C24",
"m.	c #EC1414",
"n.	c #EA0B08",
"o.	c #FBF2EC",
"p.	c #FE7785",
"q.	c #E5E7F7",
"r.	c #F97977",
"s.	c #FBBCBC",
"t.	c #FBC9C8",
"u.	c #E77C85",
"v.	c #FA938E",
"w.	c #D98E91",
"x.	c #F4FCEE",
"y.	c #EB5154",
"z.	c #EBE4E5",
"A.	c #DC3537",
"B.	c #5A76B6",
"C.	c #5170AE",
"D.	c #566DB4",
"E.	c #4C6AB4",
"F.	c #5665A6",
"G.	c #4966B6",
"H.	c #4B72B6",
"I.	c #637AB3",
"J.	c #E53845",
"K.	c #46659E",
"L.	c #3C5CA4",
"M.	c #4460B4",
"N.	c #3956AB",
"O.	c #425DAD",
"P.	c #385BB4",
"Q.	c #535AA6",
"R.	c #F3413D",
"S.	c #465DB1",
"T.	c #455CA7",
"U.	c #345BAD",
"V.	c #EBD6E5",
"W.	c #3D63AB",
"X.	c #3B64B3",
"Y.	c #4362AB",
"Z.	c #E1928E",
"`.	c #E5767B",
" +	c #4A67A9",
".+	c #3C5BAC",
"++	c #DC8D8A",
"@+	c #695194",
"#+	c #F1311A",
"$+	c #DD2C37",
"%+	c #2E65B5",
"&+	c #5B5699",
"*+	c #E51823",
"=+	c #465C9E",
"-+	c #FA99A2",
";+	c #DA221E",
">+	c #E71716",
",+	c #D7928D",
"'+	c #F31C14",
")+	c #F0A69D",
"!+	c #F6A8AA",
"~+	c #ED847C",
"{+	c #ED5D65",
"]+	c #E76C6C",
"^+	c #E9544E",
"/+	c #DB918E",
"(+	c #C67979",
"_+	c #BB7A72",
":+	c #CE8486",
"<+	c #D9767D",
"[+	c #D27C7D",
"}+	c #C57E80",
"|+	c #DD7171",
"1+	c #DCF8F9",
"2+	c #E56D78",
"3+	c #D6CBCD",
"4+	c #DB6F72",
"5+	c #DEA79C",
"6+	c #CCD8C6",
"7+	c #D3C5B9",
"8+	c #CFC3BB",
"9+	c #D9BAB6",
"0+	c #B98285",
"a+	c #D9B1AD",
"          . + . . @         # . $ % . @     #   @ & * @ . =   # -   ; . . . & #   #     @ . . . .           . . . @ .           ",
"          . . . . @         # . . . . @         > + . $ + , >   >   ' $ . % + ,         @ . . . . #         @ . . . . >         ",
"  #       . @ . . @   #     # ) + ! . @     #   @ ~ $ . ~ { #   # # { . ! . ~ @ # #     @ . + @ . #   #     @ . + . ! >     # > ",
"        > . . . ] @         # . . . . @ #       > & @ @ ] @   ^ >   @ . @ . /         # @ . . . . #         @ . . . @ >         ",
"# # > > ; @ . @ $ @ # > # # ; @ + ! @ ; ;     # { . . ) ) ; #   #   ; ) ) ( _ { >   > # ; @ ! + @ # # #   # @ % @ . @ ; > > >   ",
"@ . + @ @ # #     # * . . @ @ >   > > , @ . @ . + > ^ ' ; { & : ! < { # = #   @ . * + @ ; #     > ; @ . . $ #     # # @ + ! . + ",
". @ . . .         # . @ . * +       > ; . . . . [ > > >   # } [ [ | -   > > > - . . . . ; >     # * . . @ . #         . . . . . ",
". . . . .         # . @ $ . .         ; . . + % 1 2 3 4 5 6 6 7 7 6 3 8 4 9 2 1 $ . . . ,         + . . @ . #   #     @ . % . . ",
". . . . .       > > ( . @ % @   0 >   # $ a . b c d e f g h i j j i k l m n o p q . . . r   >     @ & @ . ( #         . . . . . ",
"@ @ @ @ @ # ; # # - @ % + ! { ; { ^ # # = ) @ > s t u v w x o x x o x w v u y z ; @ . A r # > r { @ . + $ * ; ' ; ; # @ @ @ @ @ ",
">   # > # @ @ . B @ >     # r ) q C D < C E + @ F G H I w J K J L K M N t O G F P Q E C < p % % ) r #     - } B . * @ #   >   # ",
"          . + . ) )   >   # = R S T U V W V V G X Y Z `  .x o x o o x  .K Z Y X G V X W G U T S R r #       + ) . $ .           ",
"  #       . . . ! $     #   ; ..C c I k J h k O +.u @.o J H J J x O L J J #.u +.x $.J L n %.s * ..;         $ . ! + . #     #   ",
"        # . . . * ) # # #   - } [ a V w M N x K o h &.x Z K  .$.$. .M Z x J h *.o $.M x N W z - E {   > # # ! * . . . #         ",
"> # # # ; ; + @ C } ;   - > =.-.9 ;.>.k K w o Z o J ,.x L x x x Z x J Z x  .N o t J w x $.'.;.9 -.=.- ; # r ! C @ + ; ; # > # > ",
". . . @ @   #     { ( R ..} ).!.j ~.O Z o J M J N o o x K K L o K L K w x t d J K $.x {.x x J ].!.^.| /.R ) {     #   @ + . . . ",
". . $ . .       # ; b (.b - ;.j '.M o I *.&._.K x o N w J o K N O o :.L o x w f N x N N M M x ` n -.<.) S . [ r   #   . @ . . . ",
". . . . @       >   C T p [.}.~.x &.$.K u L |.t #.x I 1.2.L x I N ,.K $.x x K w t J y y ` *.Z y O ^.3.D 4./ - ;       + . . . . ",
". . . % @   >   - r s U y 5.1.&.o M 6.x k 7.Q 8.B 8.9.Q 0._.O a.K N N o M Z Z b. .i 8 Q 8.1 9.9.Q -.1.v X c.- ^       @ . . . . ",
"; @ @ @ ; # ; ; # r D >.k x K k K L I d.e.f.>   >   > > g.j &.K K J O Z t w M {.o j 4 >   > >   r -.e h.d.a ; ; ; { , @ @ @ ; @ ",
"#     # ; % ) . ] ' 4.i.x Z K M M w i $.j.7.# >   #   - k.j.e l.d x O J d K j +.m.n.8 ; = #   # o.p.n.e.y a = ~ @ . + # >   >   ",
"        # . . . . , q.5.o M N J h :.0.-.r.s.#   # # r > t.0.0.u.2.J N ,.w k y u.v.r.t.# '   > - > s.0.7.w.% ; < . . . >         ",
"          . + . & x.~ d.k k x &.N i.Q     # -   # r r - # r     V $.k ,.x k y.r   #   > # r r r { r   ^ > . $ . . @ .           ",
"          . % . % @ z.A.M ,.I o J v 1 - - r     - >   #     # P y $.>.,.*.h W A   > #   > #   ^   # > r b Q <.% . % . > >     > ",
"{ ; ; , @ ) ' ; b > z.A.h.M M o N y 9.          o.- [ b <.@ - ( y M o x x J V r # #   >   0 [ } ; b @ <.& _ @ ' <.' = = # ; ; ; ",
". . . z.@     > # # c 1.&.J J ,.J y Q #   #   # * B.C.C.D.D.E.F.'.N x k x k |.= r ;   ; > ] B.D.G.H.D.H.I.c.> > - #   @ z.% . . ",
"+ . . . * > {     > c J.$.o o N J y P #         ; K.L.M.N.O.P.Q.t l.x x N H R.=     # r   q.N.P.M.S.T.U.F.V.> #   { > * . * . . ",
". . + . ! - # = [ - c X H o M N M v Q # >     # b C.U.W.P.W.W.T.t J x x N k |.r     # ; > /.W.X.W.W.Y.U.C.3.> > r # > * . ) . $ ",
"& . $ . .   # F -.Z.`.y J N &.:.J :.P #         q B.N.M.M.W.W.T.I J x x J H |.= # # # #   q. +L.X.X..+P.F.;.++-.F # > % & ) . . ",
"; { = { <.@ ; 9 j.j J $.&.K $.o N y Q #   #   # C  +.+G..+T.W.Q.t J Z H N J |.=   # # r > q.Y.O.O.S..+X.@+H l g w.; ' ' ; @ ; { ",
"  > # > > / x.w.j #+O x {.o N d N y P #       # [  +U.X.N.W.X.T.$+J o x x k |.=   >   {   3.L..+T.Y.W.%+&+Z K e w.@ % >   r ;   ",
"> >   ; > % S w.*+*.I  .d d O K N :.9.= = '     <.B.M.E. +=+T.Q.t J x x N k |.P = ) = > > q.E.E.H..+=+ +@+b.2.~.9 } %   { # #   ",
"#   #   > ~ [ ;._.M o L o M N J x w y R.a.-+> 0 > + b | w.f >.'.J J x J J N a.v |.v 4   r - q : [ u.;+A.$+x b.>+,+[ ~ > >       ",
"#   #   # ! [ ;._.M x x K J x o Z N o k m.k.> r # # ' # v.'+h.k J x x J J L J x H e.)+  o.# > o.  r.l  .,.J x j ,+- ( # >       ",
"r @ ) ; { = - 7 i M x x d J M J t a.o b.h v.  r -   > > g.*+x Z J J x J J J J J o l.!+> ^   - r # ~+n O x k J +.9 - ' @ ; @ ; @ ",
". * . $ ~ # > 7 _.M x x M J x x o $.k {.h {+-+f.f.f.v.f.{+~.x I J J J x x x M x O w ]+8 g.f.8 f.g.^+Y {.x w x _.6   # . % . . . ",
". . . $ ) # > 7 _.M x x K J x N x N o @.u l.*+>+'+g j I k h.O :.x J J J J J J J $.h.k H '+'+m.n 6.~.~.K J w x ;+6     . % $ % * ",
". . . + ) # - 8 n M x J x N x x x x L J x x *.#+:.k ,.L Z w k ~.M o J J J J J J o o x x {.x ,.o h Z K d L J x j 3   > ! % . . . ",
". * ~ $ ~ # - 8 _.M o x o J M d x x x J J x x O o J a.N J x k J J J J J J x J x ,.d K ,.k k M ,.x Z ,.N d o O l 3   = ) % . + . ",
"; ; { ; { ; - /+_.N x Z K J J x o J M M t x w d K H J ,.L Z d ` J J M x J J J J O L J J J J Z o w Z ,.J O Z Z ~.9 ; ; @ , ; ; , ",
"  > #   # ~ [ ++_.N x x x J x x x x J x x J x x x J J J J J J x J J J J J J J J J J x J J x J x J J J J x J M _.,+[ . #   #     ",
"  > #   # ) } ++_.M M x x J J x x x M J d M M J o J J J J x J J J x x J x J J o J J J J J J J J J x J J J x x l.,+[ ~       >   ",
"  >     ; . <.++n M x J x J x x N J x x x x J o N x J J J J J J d J J J J J N J J M J x x J x J J x J J Z J N _./+b . #     >   ",
"#   #   r ) [ ++_.M x x K J x x o x N o d x N J x J o J J M J x x J x J x J x J J J J J J J J J J M J J x J K _./+[ $ # >   -   ",
"; * @ + x.; - Z._.N x J x N x x x J x o M x J M M J J x J J J J J J J J J J J x J J J J x J x J J N J x x L J _.7 - ; = @ @ * ; ",
". % ( . ) # > 7 n M x x o o J x d M J N x J x d x x J J J x x x M J x J J x J J x J J x J J J J J o J J J J K _.6 > r @ % . . . ",
"( * ! $ ) # - 7 _.M x x M J M J x M J x K J x N o N J J x M J J J J J J J J J J J x J J d J M J J J J J J Z K _.3 - # ) % . & % ",
". * ) . )   > 7 _.N x J x M o x x J x x J x x x M o J J x J J J J J x J J x J x J J J J x J J J x M J x x x N _.3 > # @ + ! & $ ",
". & . C ) #   8 j l.K o J x w h ].j ` O N 2.M x Z o o h o *+].n '+'+l.;+h.N f J k x i.H h.6.~.j k j x O L o d j 8 > # ) + ! . . ",
"# ; # > { @ b Z.Y o J d M h J.(+(+_+$+o w d k N M N 6.k U :+}.<+(+[+}+U $.K x u M H d M k $+_+_+(+J.H M K ,.o m /+[ = @ > # ; > ",
"  > #   # . [ ++e K 6.L {.n u./.b D 1.O $.x Z N x x ,._.<+[ [ >   { E |+~.o ;+&.N Z O k h A.D } 1+2+h h k +. .e /+[ ( #     >   ",
"  >     # . [ ++n J J x b.l {+: <.D #.u J *.K J x Z o _.|+> - >   - [ ]+j o *.o x  .O N N 2.D o.& {+].b.L  .J _./+[ . >     -   ",
"  >       ~ b ++k t L A.A.I <+(.@ 3+X t J.f +.x J o J '+|+# r   > r { ]+].Z N J Z +.f J.$+U D $ (.4+'.A.A.J Z J ,+[ .       >   ",
"  >   > # . - ++_.x *.5+z 6+p ( % 3.7+7+s }.k J K K k h [+[ > >   # [ |+$.Z K ,.O J }.s 8+9+/.% R s 6+z 5 I $.*+/+[ ( r >   > > ",
"@ @ @ + @ ; - 7 l a.f F > ; ' ; >     > [ }.m.M o x x k ^.[ A * % * - `.$.x o a.M >+-.{ -     > # # @   =.t a.j 7 - ' @ @ @ b @ ",
". & . % )   > 7 m.j i 9+C . ! - r r   - : 2+m.+.j n k j.`.{ P _ . _ - ]+j.j Y n l.n u.E <.> r - > ! . C 7+*+'+e.6 > > $ . . & . ",
"$ . . . +   ' 3+[+:+0+F A $ * > >   - <.) 2 (+}+[+}.^.}+9+= . . . . r a+:+^.[+(+<+_+a+$ ; -   > > @ % P F 0+:+[+3+^   $ . * . . ",
". . * ! . > > ' r ; < * b < +   >     , . : S (.| { # r # - & @ + ] { # { r { } (.S ... ;     >   ) ] * } a r r ' >   * . . . . ",
"+ . . @ @ ;     # > C + % $ ; r   ;   > R % @ & - > > >   @ @ $ @ @ @   > ^ > <.& <.% . >   ; # # ; + . % * ' >     ; @ @ . + $ ",
"    ; #   @ @ . @ @ > ^ > # # . ) $ . <.> > > > <.@ $ ! ! { # # = # { ! + $ <.; ^ ^ > > ; % . ) . r > > ^ > <.@ + . @ # > # >   ",
">       > * . $ : !         > . % @ & . >   #   # ) $ ) . @ > > #   ) . $ . ~ =   # > > . . % . . -         ! : % ! @ >   >     ",
"#       , . . @ ( o.# # > > <.% * % ) ; # # # # = z.% % % <.> - > - [ q.* % . # # # #   ; @ * . . ;     >   $ ( ) . . ;       > ",
"        > @ . . & } {   #   # ! + z.. { > > >   # * % % . >         > % % % . {   > { > * . . . . #       { ! & . . . >         ",
"  > >   ^ . + . . '       # ; $ . C + +     >   @ ! . $ $ o.# r r # P $ ) . $ @ >     > C . @ % $ ; #     > , % . + + #   # >   "};
