/* XPM */
static char * wall_xpm[] = {
"64 64 7 1",
" 	c #D0D0D0",
".	c #E6E6E6",
"+	c #CCCCCC",
"@	c #FFFFFF",
"#	c #E2E2E2",
"$	c #E1E1E1",
"%	c #C8C8C8",
" ......+ ......+ ......+ ......+ ......+ ......+ ......+ ...... ",
".@@@@@@#.@@@@@@#.@@@@@@#.@@@@@@#.@@@@@@#.@@@@@@#.@@@@@@#.@@@@@@.",
".@@@@@@#.@@@@@@#.@@@@@@#.@@@@@@#.@@@@@@#.@@@@@@#.@@@@@@#.@@@@@@.",
"+##$$##%+##$$##%+##$$##%+##$$##%+##$$##%+##$$##%+##$$##%+##$$##+",
"...+ ......+ ......+ ......+ ......+ ......+ ......+ ......+ ...",
"@@@#.@@@@@@#.@@@@@@#.@@@@@@#.@@@@@@#.@@@@@@#.@@@@@@#.@@@@@@#.@@@",
"@@@#.@@@@@@#.@@@@@@#.@@@@@@#.@@@@@@#.@@@@@@#.@@@@@@#.@@@@@@#.@@@",
"$##%+##$$##%+##$$##%+##$$##%+##$$##%+##$$##%+##$$##%+##$$##%+##$",
" ......+ ......+ ......+ ......+ ......+ ......+ ......+ ...... ",
".@@@@@@#.@@@@@@#.@@@@@@#.@@@@@@#.@@@@@@#.@@@@@@#.@@@@@@#.@@@@@@.",
".@@@@@@#.@@@@@@#.@@@@@@#.@@@@@@#.@@@@@@#.@@@@@@#.@@@@@@#.@@@@@@.",
"+##$$##%+##$$##%+##$$##%+##$$##%+##$$##%+##$$##%+##$$##%+##$$##+",
"...+ ......+ ......+ ......+ ......+ ......+ ......+ ......+ ...",
"@@@#.@@@@@@#.@@@@@@#.@@@@@@#.@@@@@@#.@@@@@@#.@@@@@@#.@@@@@@#.@@@",
"@@@#.@@@@@@#.@@@@@@#.@@@@@@#.@@@@@@#.@@@@@@#.@@@@@@#.@@@@@@#.@@@",
"$##%+##$$##%+##$$##%+##$$##%+##$$##%+##$$##%+##$$##%+##$$##%+##$",
" ......+ ......+ ......+ ......+ ......+ ......+ ......+ ...... ",
".@@@@@@#.@@@@@@#.@@@@@@#.@@@@@@#.@@@@@@#.@@@@@@#.@@@@@@#.@@@@@@.",
".@@@@@@#.@@@@@@#.@@@@@@#.@@@@@@#.@@@@@@#.@@@@@@#.@@@@@@#.@@@@@@.",
"+##$$##%+##$$##%+##$$##%+##$$##%+##$$##%+##$$##%+##$$##%+##$$##+",
"...+ ......+ ......+ ......+ ......+ ......+ ......+ ......+ ...",
"@@@#.@@@@@@#.@@@@@@#.@@@@@@#.@@@@@@#.@@@@@@#.@@@@@@#.@@@@@@#.@@@",
"@@@#.@@@@@@#.@@@@@@#.@@@@@@#.@@@@@@#.@@@@@@#.@@@@@@#.@@@@@@#.@@@",
"$##%+##$$##%+##$$##%+##$$##%+##$$##%+##$$##%+##$$##%+##$$##%+##$",
" ......+ ......+ ......+ ......+ ......+ ......+ ......+ ...... ",
".@@@@@@#.@@@@@@#.@@@@@@#.@@@@@@#.@@@@@@#.@@@@@@#.@@@@@@#.@@@@@@.",
".@@@@@@#.@@@@@@#.@@@@@@#.@@@@@@#.@@@@@@#.@@@@@@#.@@@@@@#.@@@@@@.",
"+##$$##%+##$$##%+##$$##%+##$$##%+##$$##%+##$$##%+##$$##%+##$$##+",
"...+ ......+ ......+ ......+ ......+ ......+ ......+ ......+ ...",
"@@@#.@@@@@@#.@@@@@@#.@@@@@@#.@@@@@@#.@@@@@@#.@@@@@@#.@@@@@@#.@@@",
"@@@#.@@@@@@#.@@@@@@#.@@@@@@#.@@@@@@#.@@@@@@#.@@@@@@#.@@@@@@#.@@@",
"$##%+##$$##%+##$$##%+##$$##%+##$$##%+##$$##%+##$$##%+##$$##%+##$",
" ......+ ......+ ......+ ......+ ......+ ......+ ......+ ...... ",
".@@@@@@#.@@@@@@#.@@@@@@#.@@@@@@#.@@@@@@#.@@@@@@#.@@@@@@#.@@@@@@.",
".@@@@@@#.@@@@@@#.@@@@@@#.@@@@@@#.@@@@@@#.@@@@@@#.@@@@@@#.@@@@@@.",
"+##$$##%+##$$##%+##$$##%+##$$##%+##$$##%+##$$##%+##$$##%+##$$##+",
"...+ ......+ ......+ ......+ ......+ ......+ ......+ ......+ ...",
"@@@#.@@@@@@#.@@@@@@#.@@@@@@#.@@@@@@#.@@@@@@#.@@@@@@#.@@@@@@#.@@@",
"@@@#.@@@@@@#.@@@@@@#.@@@@@@#.@@@@@@#.@@@@@@#.@@@@@@#.@@@@@@#.@@@",
"$##%+##$$##%+##$$##%+##$$##%+##$$##%+##$$##%+##$$##%+##$$##%+##$",
" ......+ ......+ ......+ ......+ ......+ ......+ ......+ ...... ",
".@@@@@@#.@@@@@@#.@@@@@@#.@@@@@@#.@@@@@@#.@@@@@@#.@@@@@@#.@@@@@@.",
".@@@@@@#.@@@@@@#.@@@@@@#.@@@@@@#.@@@@@@#.@@@@@@#.@@@@@@#.@@@@@@.",
"+##$$##%+##$$##%+##$$##%+##$$##%+##$$##%+##$$##%+##$$##%+##$$##+",
"...+ ......+ ......+ ......+ ......+ ......+ ......+ ......+ ...",
"@@@#.@@@@@@#.@@@@@@#.@@@@@@#.@@@@@@#.@@@@@@#.@@@@@@#.@@@@@@#.@@@",
"@@@#.@@@@@@#.@@@@@@#.@@@@@@#.@@@@@@#.@@@@@@#.@@@@@@#.@@@@@@#.@@@",
"$##%+##$$##%+##$$##%+##$$##%+##$$##%+##$$##%+##$$##%+##$$##%+##$",
" ......+ ......+ ......+ ......+ ......+ ......+ ......+ ...... ",
".@@@@@@#.@@@@@@#.@@@@@@#.@@@@@@#.@@@@@@#.@@@@@@#.@@@@@@#.@@@@@@.",
".@@@@@@#.@@@@@@#.@@@@@@#.@@@@@@#.@@@@@@#.@@@@@@#.@@@@@@#.@@@@@@.",
"+##$$##%+##$$##%+##$$##%+##$$##%+##$$##%+##$$##%+##$$##%+##$$##+",
"...+ ......+ ......+ ......+ ......+ ......+ ......+ ......+ ...",
"@@@#.@@@@@@#.@@@@@@#.@@@@@@#.@@@@@@#.@@@@@@#.@@@@@@#.@@@@@@#.@@@",
"@@@#.@@@@@@#.@@@@@@#.@@@@@@#.@@@@@@#.@@@@@@#.@@@@@@#.@@@@@@#.@@@",
"$##%+##$$##%+##$$##%+##$$##%+##$$##%+##$$##%+##$$##%+##$$##%+##$",
" ......+ ......+ ......+ ......+ ......+ ......+ ......+ ...... ",
".@@@@@@#.@@@@@@#.@@@@@@#.@@@@@@#.@@@@@@#.@@@@@@#.@@@@@@#.@@@@@@.",
".@@@@@@#.@@@@@@#.@@@@@@#.@@@@@@#.@@@@@@#.@@@@@@#.@@@@@@#.@@@@@@.",
"+##$$##%+##$$##%+##$$##%+##$$##%+##$$##%+##$$##%+##$$##%+##$$##+",
"...+ ......+ ......+ ......+ ......+ ......+ ......+ ......+ ...",
"@@@#.@@@@@@#.@@@@@@#.@@@@@@#.@@@@@@#.@@@@@@#.@@@@@@#.@@@@@@#.@@@",
"@@@#.@@@@@@#.@@@@@@#.@@@@@@#.@@@@@@#.@@@@@@#.@@@@@@#.@@@@@@#.@@@",
"...+ ......+ ......+ ......+ ......+ ......+ ......+ ......+ ..."};
