/* XPM */
static char * 0_xpm[] = {
"16 16 3 1",
" 	c None",
".	c #000000",
"+	c #CFC6B8",
"                ",
"                ",
"     ......     ",
"    .++++++.    ",
"   .++++++++.   ",
"   .++....++.   ",
"   .++.  .++.   ",
"   .++.  .++.   ",
"   .++.  .++.   ",
"   .++.  .++.   ",
"   .++....++.   ",
"   .++++++++.   ",
"    .++++++.    ",
"     ......     ",
"                ",
"                "};
