/* XPM */
static char * collects_xpm[] = {
"64 64 55 1",
" 	c #FCFCFC",
".	c #EEEEEE",
"+	c #F8F7F3",
"@	c #F4F4F4",
"#	c #EFEEE3",
"$	c #F4F3EB",
"%	c #FDFCF3",
"&	c #F5F3E4",
"*	c #F8F7EB",
"=	c #FCFBEC",
"-	c #EFEDDE",
";	c #F8F7E2",
">	c #F1EEDC",
",	c #F5F3DB",
"'	c #FCFAE3",
")	c #F9F7DB",
"!	c #F2EFCC",
"~	c #F1EED3",
"{	c #F9F6D3",
"]	c #FEFBDC",
"^	c #F5F3D5",
"/	c #F5F1CC",
"(	c #F6F2C4",
"_	c #FDF9CC",
":	c #FDFAD3",
"<	c #FAF6CC",
"[	c #FAF5C3",
"}	c #F6F1BC",
"|	c #FAF4BC",
"1	c #FAF3B4",
"2	c #FCF8C6",
"3	c #F9F2AC",
"4	c #F9F1A3",
"5	c #F9F09B",
"6	c #F7F0B2",
"7	c #F1EFE3",
"8	c #F0EFE9",
"9	c #F9F095",
"0	c #FAEF8C",
"a	c #FAEF84",
"b	c #FBED74",
"c	c #FBED6B",
"d	c #FCEC65",
"e	c #FCEA53",
"f	c #FCE844",
"g	c #FCE94C",
"h	c #FDE63B",
"i	c #FDE533",
"j	c #FDE42D",
"k	c #FCEB5B",
"l	c #FDE741",
"m	c #FBEE7C",
"n	c #F7F0A8",
"o	c #F7F0A7",
"p	c #FAEF91",
"   ..+  @.@   ..@  @.@   ..@  @.@   @.@  @@.   ..@  @..   ..@  +",
"   ..+  @..   ..+  @..   ..@  @..   ..@  @..   ..@  @..   ..@   ",
" + @@@  @@@+ +@@@  @@@   @@@  @@@  +@@   @@@  @@@@   @@+  @@@  @",
"..@  @..   @.@  @..   ..@  +..   ...  @..   @.@   ..+  @..   ..@",
"..@   ..   ..@  @..@  @.@  +..   @.@   ..+  ..@   ..   @.@  +..@",
"@@+++@@ @ +@@+@+ +@ ++@+@@ +@+@@+@@+ @@@@  @@+@++@@ +@+@@@ +@ @@",
"   ..@  @.@   @.+  @.@   ..@  @..   ..@  @..   ..@  +..   ..@  +",
"   ..+  @..   ..+  @..   ..@  @@.   @.+  @.@   ..@  @..   ..@   ",
"@@@  @@@@  @@@  @@@@ @@@@  +@@+  @@@  @@@+ @@@@  @@@+  @@@  @@@@",
"..@  @..   ...  @..   ..@  +..   ..@  +..+  ...  @..@  @.@   ..@",
"..@   @.+  ..@  +@.   @.@  @.#$%%$..  @@@@  @.@  +.@   @..   ..@",
"  +@.@  @@@   @.+  @@.  +$&*%+*&&=+=$&$  @@@+  .@+  +..+  @.@   ",
"   ..@  @..   ..+  @.. %+#-;==;->===&-$%%@.$   ..@  @..   ..@  +",
"  +@@@  @@@  +@@+  @$$===&,;';),,;';,&;==*$$   @@@  +@@  +@@@  +",
"..@   ..+  ..@  +.$+%+&-,'')!~{]]^!^]';>>*%%$.@   ..+  @..   ..+",
"..@  +..   ..@  @.#===,~^]]{/(_:_((/:]:~~;%=##.  +..   ..@   ..@",
"++@++@@ @+@@+@++@$*;';,^{<<[}}|1||}(2<<:^);;;*@++@@  @+@@ @ @+@ ",
"   ..+  @.@   ..+%%,~~::_}311345543336|_:^~~=%=7.@  @..   ..@  @",
"   ..@  @..   .8*==,!/__|455590aa099553[2<!~'==78@  @..   ..@  +",
"@@@   @@++ @@@+=;&){{<|3450abccdccbba9541|<:{^&==+@@@ +@@@ +@@@ ",
"..@  +..   ..$%%;~!:_[450abdefffffgecba051[_/~,=%=..+  @..   ..@",
"..@  +.@   @.*%=;~!_[35abdehiiijjiiifedba51[(/^'=*&.   @.@  +@.@",
"  +.@@  @.@ %=&>,:_|39abkfijjjjjjjjjjigkb053|:{,&$% @.@+  @.@  @",
"   ..+  @.. %+-~):_39abkhijjjjjjjjjjjjifkba5|_:~~&%%@..   ..@   ",
"   .@+  @@@+=*,,{_|40bklijjjjiihiiijjjjilkm03|_/^;==@@@+  @@@  @",
"..@  @..   $#&']<}35adfijjjihgekkeghjjjjigc053[:];##+  @..  +.@@",
"..@  +..   8#&']<640meijjjifecbbmbdefijjjhkm94}_];-#+  @.@  @@.@",
"@@@  @+++++$;;)<<15adfjjjifkba9990mbkljjjifca41_{);*$ ++@++  @@@",
"   ..@  @.8%%'~![15mehjjjhkc0941349acehjjjhka41(/,==$..   ..@  +",
"  +..+  @..=='^(}19bgijjigda53|22|39mdfjjjiem51}/^==*..   ..@   ",
"@@@ @+@@+ @$;,{:|40bgijjieb04|___214acgijjieb03|{{);$+ @@@+ +@@@",
"@.@   ..   &#,]:|40cgijjieb03|__:_|30ceijjieb042:)~#=  @..   ..@",
"..@  +.@+ %&,,]:|50bgijjheb04|<:__|40cgijjieb032:)^#*  @.@   ..+",
"  +@@@  @@@+=;//|39bgjjjigca51[22[15adgijjiem93}<^'=$8@+ +.@@  +",
"  @..@  @.8%%'~/[15beijjjfkm943|1340mkhjjjiem51}/^==*..   ..@  +",
"   .@+  @.$+='^/215mdhjjjiecm054450mdgijjjlda4}(/)'=@.@+  @.@   ",
"..@   ..   $#,':<650bgijjihecbaaambdghjjjieb041_]),#@  @.@   ..@",
"..@  @..   8#&']<}49mkhjjjihgkdccdeghjjjjlda9n}:];-#+  @.@  +.@@",
"@@+  @@++++@*;',<[640cehjjjjihfggfhijjjjheb041/{);**+++@@@+@ +@@",
"   ..+  @.$  =>~^:[39mdgijjjjjjiiijjjjjhecm912:/^&%%+.@   ..@  @",
"   ..   @..  +7~^]_149mcgiijjjjjjjjjjjhecm04(_:~-;% @..   ..@   ",
"++@+@@@++  @@*='){<[140mdelijjjjjjjjileca94|[<^';=$@@ +@@@  @@@@",
"..@  @..+  ...%=;~~<2|40abdelhiiiiifecbm94|_/!^=%=..   @..  +..@",
".@@   ..   ..$%%;,~^_[1490abdkkkkkkdba9541_:/~,=%+..+  @.@   @.+",
"   @@+  @.@   $8'=',^/<|15900ambmma009o1|2/<)'*&&@  @@@@  @.@  +",
"  @..@  @..  +.#$%=,!/:_26n3o49p95444n12:<~~'==8.@  @..   ..@  +",
"  +@.   @@@  +@@@==;,^):<(}||133311|}}<:{^^,==+$.@  @@.   @.@  +",
"..@  +..@  .@@  @$8*=',^^::2(([_2([[<:^/^;==&8$   ..+  @..   .@@",
"..@  +..   @.@   ..+%=&~>'':/!:::///]')~~*=%8.@   ..+  @..   ..+",
"@@@ @ @@@ +@@@+ @+@@+=*;;;;,,{,)),,);;;;;==+@@@@ +@@@  @@@+++@@@",
"  +..+  @..   ..+  @88%%=#,;==,>,'=',#;%%@8.   ..@  @..   @.@   ",
"   ..+  @..   ..+  @..  +##*%=*#7=%=7#*  @..   @.@  @..   ..@  +",
"+++ +@@@ + @+@+ ++@@+ @@+++@$$=**$$@+++@@+ +@@@+ @@@@  @@@ ++@@+",
"..@  @..   ..@  +..   ..@   ..+  $.$   ..+  ..@   ..+  ...   ..@",
"..@  +@.   ..@  @..   ..@  +..   @.@  @..   @..   ..+  @.@   .@@",
"  @@@+  @@@  +@@@  @@@  +@@+  @@@+ +@@@  @@@+  @@@  @@@   @@@  @",
"   ..@  @..   ..@  @..   ..@  @..   ..@  +..   ..@  @..   ..@  +",
"  +@@   @..   ..@  +.@  +@.   @.@   @.@  @@.   @@+  @..   @.@   ",
".@@  @..@  @.@  @.@+  @.@  +.@+  @.@  +..@  @.@  @..   @.@  +@.@",
"..@  +..   ..@  @..   @.@  +..   ...   .@+  ...   ..+  @..   ..@",
"@@@  @@@ + @@@   @@@+ @@@+ @@@+  @@@ + @@+  @@@  @@@  @@@@@ @@@@",
"   ..@  @..   ..+  @..   ..@  @..   ..@  @..   ..@  @..   @.@   ",
"   ..@  @..   ..@  @.@   ..@  @@.   .@@  @.@   ..@  @..   ..@  +",
" +@@ @++@@@ ++@@@ +@@@ @@ @@ @@@@+ @@@++ @@@@+ ++@@ @@@ +@ @+@@ "};
