/* XPM */
static char * escape_xpm[] = {
"64 64 4 1",
" 	c None",
".	c #2ADB09",
"+	c #23AE0E",
"@	c #1C1C1C",
"    ........................................................    ",
"  +...........................................................  ",
" .............................................................. ",
" .............................................................. ",
"................................................................",
"................................................................",
"...........                                      ...............",
"..........                                       ...............",
"..........          ....                         ...............",
"..........         .......                       ...............",
"..........        ........+                      ...............",
"..........        .........                      ...............",
"..........       +.........                      ...............",
"..........        .........                      ...............",
"..........        ........+                      ...............",
"..........         .......                       ...............",
"..........          ....                         ...............",
"..........                                       ...............",
"..........             ..................        ...............",
"..........            ....................       ...............",
"..........           ......................      ...............",
"..........          ............      .....      ...............",
"..........         .............        ....     ...............",
"..........        ...............        ....    ...............",
"..........       .....+..........         ...    ...............",
"..........      .....  ...........         ...   ...............",
"...........    .....   ...........          ..   ...............",
"...................     ...........              ...............",
"...................     ...........              ...............",
".................        ...........             ...............",
"..........               ...........             ...............",
"..........                ...........            ...............",
"..........                ...........            ...............",
"..........                ...........            ...............",
"..........                ..... .....            ...............",
"..........               .....  .....            ...............",
"..........               .....   ....            ...............",
"..........              .....    ....            ...............",
"..........              .....    ....            ...............",
"..........             .....     ....            ...............",
"..........            +.....     ....             ..............",
"..........            .....      ....              .............",
"..........           .....+      .....         ..   ............",
"..........           .....       ..................  ...........",
"..........          .....        ...................+ ..........",
"..........          .....         ...................  .........",
"..........         .....                               .........",
"..........         .....                          ..............",
"..........        .....                           ..............",
"..........        .....                          ...............",
"..........       .....                           ...............",
"..........       .....                           ...............",
"..........      .....                            ...............",
"..........      ....+                            ...............",
"..........     +...                               ..............",
"..........                                        ..............",
"...........     ....                              ..............",
"............    .....                              .............",
"............+    .....                             .............",
" .............    .....                             ............",
" +.............    .....                             ...........",
"  .............+    .....                            +......... ",
"   ..............    .....                            +.......  ",
"     ............     ....@                             .....   "};
